<svg width="171" height="115" viewBox="0 0 171 115" fill="none" xmlns="http://www.w3.org/2000/svg">
<path d="M163.518 22.8839C161.558 21.133 159.457 23.2333 160.018 25.2642C160.577 27.2946 159.457 28.4157 159.457 28.4157C162.678 28.2754 165.477 24.7042 163.518 22.8839ZM136.429 44.9552L136.168 44.5076C132.886 45.8137 130.848 45.9398 131.522 43.4269C133.154 39.865 134.715 36.3014 136.35 32.6675C138.661 32.6991 138.291 34.7181 138.056 36.815C138.196 36.8216 138.332 36.9002 138.468 36.9788L141.899 29.2829L141.414 29.1154C140.823 31.3428 137.992 32.0147 137.376 30.0978C138.63 27.174 139.882 24.2495 141.208 21.2569C143.013 21.6286 144.663 22.3572 144.678 26.6462L145.377 26.6773L146.342 22.36L136.616 17.415C136.659 17.999 136.234 19.6522 135.858 20.2166C132.627 28.2121 130.29 33.4141 126.957 40.5314C126.195 41.8785 125.601 42.6519 124.963 42.7687C125.577 43.1595 134.609 47.9991 134.609 47.9991L136.429 44.9552ZM155.989 26.7957C153.917 25.476 151.845 24.082 149.771 22.7633C149.752 23.6639 149.665 24.5623 149.296 25.4547C145.717 32.5883 142.07 39.6434 138.422 46.7738C137.486 48.0302 136.857 47.9429 136.157 48.0024L146.118 53.8392L149.337 50.5273L148.715 50.1397C146.798 51.376 143.922 51.692 143.044 50.0972C146.837 42.7441 150.563 35.3152 154.355 27.9626C154.647 27.3683 155.216 26.9289 155.989 26.7957ZM129.634 19.078C130.151 17.9963 130.734 17.0613 131.586 16.5712C129.505 15.7186 127.424 14.8666 125.347 13.9415C125.321 14.9627 125.297 15.9828 125.133 17.0007C122.731 23.8014 120.395 30.6775 118.063 37.4793C117.611 38.7821 116.958 39.7143 116.173 40.3529C118.267 41.1414 120.373 41.8969 122.491 42.6191C122.236 41.5919 122.333 40.4998 122.707 39.4867C124.968 32.6828 127.302 25.8804 129.634 19.078ZM162.741 33.7591C154.165 34.0986 156.783 46.6106 156.72 47.8266C156.693 48.3681 158.059 57.0605 153.791 56.8242C149.595 56.5906 150.552 50.7265 150.552 50.7265C150.635 50.5256 150.283 50.3144 150.047 50.6468C149.185 51.9125 148.015 53.509 147.312 54.439C147.243 55.7905 148.652 53.7939 149.918 55.9891C152.458 60.1765 156.96 58.6586 159.009 56.8804C163.028 53.5237 162.217 48.159 162.17 43.4209C162.146 41.1209 161.124 35.6154 164.474 35.3566C168.04 35.1023 168.138 40.247 167.777 41.5919C167.767 41.7944 168.261 42.0777 168.416 41.8774C169.131 40.6766 169.991 39.4791 170.987 38.4197C171.064 38.3542 170.785 38.1441 170.723 37.9394C170.723 37.9394 170.844 38.4164 169.637 37.9137C168.502 37.4138 168.559 33.4905 162.741 33.7591ZM107.74 20.2226L111.239 38.542L114.251 39.269L120.761 14.5522C121.042 13.68 121.459 13.0988 122.021 12.6621C120.831 12.3718 119.432 11.9351 118.241 11.6447C118.592 12.3718 118.592 13.244 118.45 14.1161C117.191 18.6239 115.93 23.7119 114.672 28.1466L110.54 10.4816C109.212 10.1907 107.881 9.9724 106.619 9.68149C106.9 10.4085 107.111 11.2812 107.04 12.2986C105.709 19.4961 104.31 26.7657 102.98 34.0353C102.77 35.1252 102.421 35.998 101.86 36.797C103.05 36.9428 104.169 37.1605 105.36 37.3788C105.01 36.3609 104.73 35.1984 104.871 34.5434C105.85 30.0367 106.831 24.6573 107.74 20.2226ZM80.0541 17.4521C79.9935 23.135 81.4558 34.6919 74.738 34.2656C74.6692 23.4685 74.6741 12.6769 74.6016 1.95236C80.434 0.636973 80.0399 10.8162 80.0541 17.4521ZM67.9951 0.003295C68.4514 0.693191 68.6867 1.43985 68.8373 2.32569C68.9268 12.8324 69.0829 23.4172 69.1675 33.996C69.0813 35.1569 68.6605 35.9276 67.9668 36.4592C70.7367 36.3009 74.6076 36.0051 76.1402 35.9008C88.3307 34.985 89.6717 0.376625 76.114 0.169765C74.1595 0.0971734 70.6095 -0.0212662 67.9951 0.003295ZM43.0001 13.822C43.6288 14.3978 43.9077 15.044 44.1834 15.9064C45.9823 23.302 47.7791 30.6988 49.5759 38.0949C49.6367 38.8952 49.539 39.6997 49.2883 40.4621C51.3907 39.823 53.4926 39.1838 55.5939 38.6162C55.1759 38.0398 54.8287 37.3936 54.5509 36.6033C53.7922 33.0135 52.9626 29.4227 52.205 25.7609L52.8382 24.2561L58.6755 37.9072C60.778 37.4836 62.881 36.9886 64.9114 36.564C64.2127 35.9161 63.656 35.0537 63.2385 34.1908C61.8615 30.8566 60.4715 27.5277 59.0685 24.2042C58.9315 23.7731 58.7951 22.3376 57.1124 22.9784C54.7294 23.904 53.4042 22.7519 53.6864 21.6035C54.3249 19.2385 55.5241 16.2279 56.4427 13.5763C56.7265 12.5011 57.3596 11.4264 58.2029 10.5684C56.85 10.8587 55.4954 11.1415 54.1394 11.4166C54.7665 12.0645 54.9745 12.7102 54.623 13.5709C53.6329 16.438 52.5025 19.6632 51.4447 22.4577L49.3696 14.2002C49.232 13.626 49.2331 12.9803 49.5164 12.4067C47.414 12.8308 45.1025 13.3973 43.0001 13.822ZM36.2567 17.6229C38.9475 16.7262 39.9823 18.797 40.8796 19.6249C40.3966 18.1758 40.2579 16.7267 39.7755 15.2083C37.9121 17.2785 37.2227 15.967 35.0832 16.6574C29.2884 18.452 30.1846 27.0102 31.9797 31.7718C34.7393 39.502 39.7072 44.3329 44.5365 42.2622C48.1934 40.6744 48.1235 34.7399 44.0529 33.1521C45.0889 34.8774 46.9511 40.1232 44.1228 41.3649C40.9484 42.7457 39.0168 34.6706 37.2227 29.4249C34.187 20.108 34.7393 18.1065 36.2567 17.6235M92.7703 17.3697L93.9923 26.9578C93.9923 26.9578 89.9632 26.6282 89.7869 26.6631L92.7703 17.3697ZM84.0849 35.5351C85.7141 35.6077 87.2063 35.7513 88.4944 35.9674C87.7478 34.8867 87.6823 34.0211 87.7478 33.1565C88.2237 31.643 88.6997 30.1284 89.174 28.6154L94.1943 28.9036L94.3995 33.5167C94.0611 34.6706 93.5169 35.5351 92.702 36.112C95.8928 36.3282 98.6076 36.4723 101.322 36.9051C100.575 36.0394 100.169 35.1023 100.031 33.8764C99.2168 25.5153 98.3358 17.1541 97.5215 8.79237C95.6898 8.64828 93.9241 8.50474 92.1606 8.3601C92.5678 9.51284 92.9067 10.7382 92.4308 12.0361C90.2607 19.0278 88.0895 26.0207 85.8484 33.013C85.5094 34.0211 84.9669 34.8152 84.0849 35.5351ZM26.99 39.8153C26.99 39.8153 23.3096 41.7813 23.1928 41.9379L20.9141 32.6233L26.99 39.8153ZM17.8603 28.4326C19.5878 35.3916 21.3153 42.35 23.111 49.2359C23.2812 50.2778 23.1648 51.3465 22.7742 52.3273C24.1578 51.6598 25.4678 50.9246 26.8508 50.2565C25.6479 49.7981 25.1381 49.112 24.768 48.3517C24.3767 46.8207 23.9881 45.3607 23.5967 43.8292L28.1509 41.3256L30.7697 44.9677C31.0802 46.0801 31.0382 47.1318 30.6409 47.9833C33.2656 46.6515 35.8893 45.251 38.5152 43.9192C37.458 43.6681 36.6005 43.0601 35.8773 42.1688C30.7743 35.7724 25.6771 29.3714 20.5855 22.9658C18.9274 23.8511 17.3413 24.7337 15.7535 25.6168C16.6847 26.3623 17.5476 27.18 17.8603 28.4326ZM2.02657 28.0123C6.66208 35.2186 11.2987 42.4936 15.9358 49.7681C19.1113 58.7924 9.31905 58.6335 8.03805 54.0799C7.6609 52.7203 6.56438 50.0104 9.88833 48.8282C9.54174 46.0304 7.0043 45.8219 5.18132 46.8278C-1.02284 50.411 6.55892 63.0873 15.8698 57.8498C19.3793 55.9105 21.7514 49.6862 19.8913 46.5849L6.87604 24.9427C6.50926 23.9941 6.41647 23.0379 6.39573 22.2164C4.2796 23.6194 2.14755 24.9982 0 26.3525C0.902759 26.877 1.73566 27.3355 2.02657 28.0123ZM95.3497 42.3549L94.5223 49.3265L96.2945 49.5628L97.1209 42.5323L95.3497 42.3549ZM90.0931 49.0312L90.5057 43.2413L92.5143 43.3592L92.6327 42.1181L86.9018 41.7049L86.8428 43.005L88.8514 43.1234L88.4966 48.9133L90.0931 49.0312ZM76.2712 43.7729C76.8028 43.714 77.2749 43.8908 77.5718 44.1861C77.8076 44.4819 77.9839 45.0136 78.1029 45.6636C78.1613 46.3731 78.0445 46.9637 77.8076 47.259C77.6302 47.6138 77.217 47.7901 76.6849 47.8496L75.7401 47.968L75.2663 43.8908L76.2712 43.7729ZM76.8028 49.3265C77.9239 49.2086 78.8113 48.8533 79.2835 48.2043C79.8156 47.5543 79.993 46.6673 79.8746 45.4862C79.7567 44.3635 79.4013 43.5366 78.8119 42.9455C78.1613 42.4144 77.3349 42.1776 76.3301 42.296L73.3178 42.5913L74.0263 49.6223L76.8028 49.3265ZM67.1759 48.9723L66.0532 43.5361L64.281 43.8908L65.7573 50.8629L71.3682 49.7402L71.0134 48.2627L67.1759 48.9723ZM116.022 48.4991L116.435 47.0816L111.298 45.6041L109.349 52.3988L114.606 53.9353L115.019 52.5173L111.474 51.513L111.888 50.0355L115.019 50.9219L115.372 49.5628L112.242 48.677L112.597 47.4953L116.022 48.4991ZM59.9112 50.4498C59.7328 50.8629 59.3785 51.2172 58.907 51.3356C58.3737 51.5719 57.9027 51.5124 57.489 51.2761C57.1342 50.9814 56.7794 50.5082 56.6037 49.8581C56.3652 49.1497 56.3073 48.5591 56.4252 48.0859C56.5436 47.6722 56.9579 47.3179 57.4295 47.1995C57.9027 47.0221 58.4338 47.0221 58.7885 47.3179C59.2017 47.6132 59.5559 48.0859 59.7917 48.7359C59.9691 49.3854 60.0275 49.9771 59.9112 50.4498ZM59.7328 45.841C58.907 45.4278 57.9616 45.4278 56.9579 45.782C55.9525 46.0768 55.2441 46.7274 54.8304 47.5543C54.4761 48.3817 54.4761 49.3265 54.8304 50.4498C55.2446 51.5124 55.8346 52.2809 56.6615 52.6947C57.4289 53.1073 58.3737 53.1073 59.3785 52.8131C60.3823 52.4583 61.0924 51.8083 61.505 50.9808C61.9198 50.1539 61.8598 49.2086 61.505 48.1454C61.1502 47.0811 60.5608 46.2547 59.7328 45.841ZM99.1289 50.0355L100.725 50.3903L101.256 47.8496C101.315 47.6132 101.375 47.2 101.433 46.7274C101.551 46.2547 101.61 45.6631 101.73 45.0136L101.965 50.6261L103.735 50.9808L106.158 45.8994C106.041 46.4316 105.864 46.8447 105.804 47.2584C105.745 47.6722 105.628 47.968 105.628 48.1454L104.978 51.2172L106.632 51.5719L107.991 44.6004L105.568 44.1277L104.033 47.1995C103.914 47.4953 103.679 47.7901 103.56 48.0859L103.205 48.9723V48.0859C103.205 47.7901 103.205 47.4953 103.145 47.1995L102.91 43.5961L100.488 43.1234L99.1289 50.0355ZM85.2207 54.2027C85.4996 53.5576 86.2834 53.4986 86.5623 54.2027C86.898 55.0241 86.5061 55.8456 85.8358 55.9629C84.9975 55.7282 85.0537 54.4958 85.2207 54.2027ZM102.878 54.2027C103.214 54.2027 103.325 55.2588 102.543 55.4351C102.208 55.0831 102.543 54.1438 102.878 54.2027ZM111.372 56.5497C111.429 56.5497 111.316 57.7231 109.303 57.2537C109.137 55.904 111.036 56.0803 111.372 56.5497ZM118.916 58.4272C119.474 59.1313 117.407 60.4227 115.283 60.1301C115.172 58.4272 118.076 57.3711 118.916 58.4272ZM128.47 61.5967C128.973 62.5355 125.732 63.9437 123.609 63.6506C123.385 62.1829 127.744 60.188 128.47 61.5967ZM69.2953 55.4351C68.5131 55.2588 68.6807 54.2027 69.0169 54.2027C69.352 54.1438 69.6304 55.0831 69.2953 55.4351ZM52.9233 58.4272C53.7606 57.4306 56.667 58.4272 56.5556 60.1301C54.4325 60.4227 52.4206 59.1313 52.9233 58.4272ZM48.2856 63.6506C46.1068 63.9437 42.9209 62.5355 43.3679 61.5967C44.0376 60.1885 48.4521 62.1829 48.2856 63.6506ZM62.5338 57.1364C60.5236 57.5479 60.4107 56.3745 60.4669 56.3745C60.802 55.904 62.7014 55.7282 62.5338 57.1364ZM68.5131 56.0808C67.2272 57.0191 66.1105 57.489 64.2668 57.489C61.696 53.5576 56.1643 56.4913 62.6457 58.6625C61.4166 60.1296 59.5166 60.2469 57.2821 60.0122C56.3875 54.9646 46.6651 58.4867 56.053 61.5378C54.5438 62.9459 52.4206 63.5327 49.5148 63.5916C45.603 56.9607 36.0482 62.6528 48.6213 64.9409C48.3413 68.1687 44.0376 68.4023 39.9043 66.4675C42.2512 69.5769 48.8997 69.4001 49.6823 64.5888C54.0968 64.5299 55.773 62.8286 57.6729 61.1857C60.2436 60.9499 62.4782 60.188 63.9311 58.1931C66.1105 58.3099 67.8985 57.6058 69.2396 56.1982C73.7097 56.726 77.789 56.5497 81.4203 54.4958C82.0354 56.1387 84.3272 57.6058 85.891 56.4913C87.4552 57.7231 89.8016 56.0808 90.4157 54.5547C94.0491 56.5497 98.1841 56.726 102.599 56.1976C103.995 57.6058 105.784 58.3099 107.907 58.1931C109.359 60.188 111.595 60.9499 114.221 61.1857C116.066 62.8286 117.796 64.5888 122.155 64.5888C122.938 69.4001 129.587 69.5775 131.933 66.4675C127.855 68.4023 123.496 68.1687 123.217 64.9409C135.846 62.7102 126.29 56.9607 122.38 63.5916C119.418 63.5327 117.35 62.9465 115.786 61.5378C125.173 58.4867 115.451 55.0241 114.557 60.0122C112.322 60.2469 110.422 60.1296 109.192 58.6625C115.73 56.4913 110.197 53.5576 107.628 57.489C105.784 57.489 104.609 57.0191 103.324 56.0808C105.224 52.6766 100.978 52.5598 101.649 55.7282C97.122 56.5497 93.2653 55.3178 90.0822 53.8507C89.7465 55.3178 88.5725 55.7282 87.399 55.9629C88.1822 53.7917 86.618 52.5003 85.4434 52.9697C84.6056 53.2639 83.8786 54.3785 84.4391 56.0213C83.6002 55.9629 82.1467 55.2588 81.8122 53.8507C78.5701 55.2588 74.7167 56.5497 70.2455 55.6693C70.8601 52.5598 66.6126 52.6766 68.5131 56.0808Z" fill="white"/>
<path d="M85.6121 59.5428C108.074 59.5428 126.347 69.752 126.347 82.3683C126.347 94.9845 108.074 105.254 85.6121 105.254C63.2041 105.254 44.9328 94.9845 44.9328 82.3683C44.9328 69.752 63.2041 59.5428 85.6121 59.5428ZM85.6121 106.898C108.744 106.898 127.576 95.8655 127.576 82.3683C127.576 68.8727 108.744 57.8999 85.6121 57.8999C62.5901 57.8999 43.7031 68.8727 43.7031 82.3683C43.7031 95.866 62.5901 106.898 85.6121 106.898Z" fill="white"/>
<path d="M144.62 79.0836C144.118 78.8473 143.614 78.731 143.112 78.731C142.832 77.7917 142.328 77.3228 141.714 76.9703C142.161 75.7378 142.608 73.2146 140.764 71.6896C140.988 70.3977 141.099 69.1069 141.322 67.7576C146.633 63.5326 151.101 72.1011 144.62 79.0836ZM143.222 79.6103C143.558 79.6103 143.893 79.7282 144.172 79.904C143.847 80.002 143.543 80.1613 143.278 80.3733C143.278 80.1397 143.278 79.8466 143.222 79.6103ZM140.54 91.2299C139.758 90.9357 138.864 90.7021 138.139 90.7611C141.322 86.6528 142.497 83.9538 142.832 81.6647C143.278 81.078 143.949 80.7259 144.676 80.5507C146.464 82.7792 145.012 86.2997 140.54 91.2299ZM128.975 99.0933C131.041 97.6262 133.276 95.807 134.897 94.0463C136.909 94.0463 138.807 93.8711 140.149 92.5218C140.764 95.1613 133.611 100.443 128.974 99.0933H128.975ZM118.972 104.961C119.083 105.195 125.846 101.206 125.677 101.029C127.745 101.265 129.812 101.029 131.712 100.736C132.047 104.668 122.437 106.428 118.972 104.961ZM105.56 108.834C109.082 108.071 112.713 107.367 115.787 106.018C117.184 106.369 118.58 106.546 119.977 106.487C119.363 110.536 112.602 109.831 105.56 108.834ZM119.866 105.842C118.58 105.842 117.239 105.842 116.01 105.49C116.512 105.138 116.681 104.491 117.575 104.786C118.023 105.254 119.026 105.547 119.866 105.842ZM130.483 100.091C129.197 100.501 127.745 100.501 126.46 100.384C126.403 99.8569 126.906 99.5049 127.912 99.3864C128.527 99.7974 129.533 100.032 130.483 100.091ZM139.814 91.934C138.585 93.4011 135.232 93.5196 135.344 93.0496C135.568 91.934 138.306 90.9363 139.814 91.934ZM142.272 79.7287C142.328 80.1987 142.328 80.7265 142.161 81.197C141.434 81.4306 140.933 81.4306 140.876 80.6675C140.82 80.1403 141.714 79.8472 142.272 79.7287ZM140.206 77.7349C139.871 79.0247 138.362 81.1375 138.083 80.6675C137.244 79.5525 139.534 77.7349 140.206 77.7349ZM139.199 72.6278C138.64 74.0961 137.412 76.2083 137.189 75.7384C136.518 74.6817 138.139 73.2151 139.199 72.6278ZM31.8026 72.6278C32.8647 73.2151 34.4847 74.6817 33.815 75.7968C33.5906 76.2083 32.3053 74.0955 31.8026 72.6278ZM30.7972 77.7349C31.4669 77.7349 33.7582 79.6109 32.9204 80.6675C32.5858 81.1369 31.1312 79.0247 30.7972 77.7349ZM93.8272 110.478C90.9219 110.889 87.569 111.886 85.5004 112.062C83.4897 111.826 79.9698 110.889 77.1758 110.478C70.3582 109.598 63.0384 107.778 55.6624 105.666C55.4386 104.434 54.4889 103.554 52.5895 104.316C50.2977 103.377 48.1188 102.144 45.9394 100.619C45.7724 99.6801 45.7724 98.8603 42.7541 98.6829C40.7985 97.0995 38.8434 95.4555 36.8878 93.8716C36.9997 92.8728 36.943 91.523 33.4793 90.5853C31.4669 87.5927 29.6232 84.6579 29.121 81.8416C32.0815 81.9005 31.1312 79.6109 28.9529 78.9663C29.0643 78.1454 29.4551 78.0864 29.9026 77.8506C33.535 85.6556 36.1608 78.7316 30.574 76.7361C30.0145 74.9753 29.9026 73.2151 30.7972 72.4532C34.2609 81.0785 36.9997 74.1545 31.5788 71.3381C31.2437 70.3982 31.1312 69.5184 31.1875 68.6964C33.255 69.8115 35.1555 71.1018 36.8311 72.5694C33.7025 89.7055 44.8227 98.2724 49.9631 100.677C40.5196 93.6942 36.6089 84.0723 37.6143 72.9804C38.2845 73.0394 38.8991 73.0983 39.5699 73.0983C38.8986 72.6873 38.2294 72.2174 37.5581 71.7486C37.4456 70.9855 37.5581 70.223 37.7256 69.4594C39.5699 70.7514 41.4131 71.808 43.8725 72.0422C41.358 75.329 40.8547 80.4923 41.0791 83.0729C42.8093 102.086 67.6761 109.657 85.6134 109.831C99.0232 109.364 126.962 104.434 129.868 83.0729C130.092 80.4923 129.645 75.2701 127.131 72.0422C129.589 71.8075 131.433 70.7514 133.277 69.4005C133.445 70.223 133.555 70.9855 133.445 71.7486C132.774 72.2174 132.104 72.6873 131.433 73.0983C132.104 73.0983 132.718 73.0394 133.389 72.9804C134.393 84.0723 130.483 93.6942 121.039 100.677C126.18 98.2724 137.244 89.7055 134.171 72.5694C135.848 71.1012 137.747 69.8115 139.758 68.6964C139.871 69.5184 139.758 70.3982 139.424 71.3381C134.003 74.1545 136.741 81.0785 140.206 72.4532C141.099 73.2151 140.988 74.9748 140.428 76.7361C134.841 78.7316 137.468 85.6556 141.099 77.8506C141.491 78.0864 141.939 78.0864 141.993 78.9663C139.87 79.6109 138.92 81.9005 141.882 81.8416C141.322 84.6579 139.535 87.5927 137.468 90.5853C134.06 91.4663 134.003 92.8149 134.114 93.8716C132.16 95.4555 130.148 97.0406 128.192 98.6829C125.231 98.8603 125.231 99.6806 125.006 100.619C122.884 102.144 120.704 103.378 118.412 104.316C116.512 103.553 115.563 104.434 115.339 105.666C107.965 107.778 100.644 109.598 93.8272 110.478ZM106.902 112.355C106.622 113.998 100.867 110.42 98.8005 110.243C98.8005 110.243 102.04 109.831 103.269 109.48C103.55 111.476 107.126 110.713 106.902 112.356V112.355ZM96.1168 112.474C96.0628 114.903 87.5204 112.546 86.8829 112.523C88.278 112.277 96.1168 111.252 96.1168 112.474ZM74.8845 112.474C74.8845 111.252 82.7179 112.276 84.1173 112.523C83.4575 112.539 74.9391 114.907 74.8845 112.474ZM64.0994 112.356C63.82 110.771 67.4534 111.476 67.7328 109.479C68.9609 109.831 72.203 110.243 72.203 110.243C70.1344 110.42 64.3794 113.998 64.0989 112.355L64.0994 112.356ZM51.0247 106.488C52.422 106.547 53.8176 106.37 55.2165 106.018C58.2893 107.367 61.9206 108.071 65.4405 108.834C58.4007 109.831 51.6393 110.536 51.0247 106.488V106.488ZM53.4279 104.787C54.3208 104.492 54.4889 105.139 54.9921 105.491C53.7068 105.843 52.422 105.843 51.1366 105.843C51.9187 105.548 52.9809 105.255 53.4279 104.787ZM39.2899 100.737C41.1904 101.088 43.2017 101.265 45.2692 101.088C45.1579 101.207 51.9187 105.196 52.0306 104.962C48.5659 106.429 38.9553 104.669 39.2899 100.737ZM43.0898 99.387C44.0957 99.5054 44.5433 99.8574 44.5433 100.384C43.2017 100.502 41.805 100.502 40.5196 100.15C41.4693 100.032 42.4747 99.798 43.0898 99.387ZM30.8523 92.5224C32.1945 93.8716 34.0944 94.0468 36.1057 94.1052C37.7256 95.8076 39.9602 97.6267 42.0288 99.0939C37.3905 100.443 30.2383 95.1619 30.8523 92.5224ZM35.6587 93.0496C35.7695 93.5196 32.4166 93.4011 31.1875 91.934C32.6961 90.9363 35.4344 91.934 35.6587 93.0496ZM26.2709 80.5507C27.0525 80.7854 27.7238 81.0785 28.1708 81.6653C28.5065 84.0133 29.6794 86.6534 32.8647 90.7616C32.1377 90.7027 31.1875 90.9363 30.4615 91.2305C25.9914 86.3597 24.5379 82.7798 26.2709 80.5513V80.5507ZM27.7789 79.6109C27.7238 79.8472 27.7238 80.1403 27.7238 80.3739C27.4438 80.1992 27.1649 80.0218 26.8292 79.9045C27.1081 79.7288 27.3876 79.6109 27.7789 79.6109ZM28.7286 79.7287C29.2881 79.8472 30.1264 80.1403 30.1264 80.6675C30.0707 81.4306 29.5675 81.4895 28.8405 81.2554C28.6729 80.7265 28.6724 80.2565 28.7286 79.7287ZM29.6794 67.7582C29.9021 69.1074 30.0145 70.3977 30.2383 71.6902C28.3373 73.2741 28.8411 75.7384 29.2886 76.9708C28.6729 77.3234 28.1708 77.7922 27.8357 78.7316C27.3881 78.7316 26.8854 78.8478 26.3833 79.0842C19.8446 72.1011 24.3715 63.5331 29.6794 67.7582ZM31.4669 64.7661C33.3674 65.2344 34.0376 67.4645 37.0549 69.2253C36.8878 69.6952 36.6646 70.282 36.7203 70.9271C35.2668 69.3416 33.3674 67.935 31.2437 66.761C31.0756 66.0569 31.075 65.2939 31.4669 64.7661ZM35.49 65.7633C34.5403 65.4707 34.1501 64.8234 33.1436 64.1777C33.9814 64.1199 35.21 64.2961 35.49 65.7633ZM139.535 64.7661C139.927 65.2939 139.927 66.0564 139.758 66.761C137.634 67.9345 135.735 69.3416 134.283 70.9271C134.338 70.282 134.114 69.6952 133.948 69.1664C136.964 67.4645 137.634 65.1754 139.535 64.7661ZM137.858 64.1777C136.797 64.8234 136.405 65.4112 135.512 65.7049C135.791 64.2961 137.02 64.1199 137.858 64.1777ZM141.099 65.8801C141.099 65.8801 140.875 64.8823 140.54 64.0615C140.764 63.651 141.267 63.2395 142.328 62.888C140.373 62.7106 140.039 63.1811 139.144 63.4736C134.003 63.0632 135.512 66.0564 133.948 67.2882C132.439 68.5802 129.31 71.7486 125.677 71.3971C128.192 74.3892 129.141 78.2032 129.141 81.9005C129.141 96.8048 109.473 108.717 85.3896 108.952C71.6424 108.952 41.8601 102.556 41.8601 81.9005C41.8601 78.2032 42.7541 74.3892 45.3249 71.3971C41.6936 71.7486 38.564 68.5802 36.9997 67.2882C35.49 66.0564 36.9997 63.0632 31.8583 63.4736C30.9648 63.1811 30.6297 62.7106 28.6729 62.8874C29.7356 63.2395 30.2383 63.651 30.4615 64.1198C30.1264 64.8823 29.9021 65.8801 29.9021 65.8801C22.1353 63.9441 18.3365 72.3353 25.4331 79.7882C21.8002 82.8393 25.992 89.2356 30.0707 91.8161C28.8973 93.8716 31.5788 98.5066 38.6197 100.502C37.3905 103.965 43.8725 106.957 50.1307 106.547C50.9685 112.531 60.0774 109.95 66.3345 109.598C66.3913 110.889 62.7595 110.537 63.3178 112.356C64.4913 115.876 70.9733 110.302 75.0526 110.654C76.672 110.713 78.6844 111.358 76.1704 111.299C72.7051 111.417 73.6554 113.705 76.2256 114.291C80.0254 114.82 82.6508 113.293 85.5566 113C88.4068 113.353 91.0321 114.761 94.7207 114.291C97.346 113.705 98.2962 111.359 94.832 111.299C92.318 111.359 94.3299 110.654 95.9504 110.595C100.029 110.302 106.511 115.817 107.629 112.296C108.243 110.536 104.611 110.888 104.667 109.598C110.925 109.95 120.033 112.531 120.816 106.547C127.075 106.956 133.611 103.965 132.382 100.502C139.424 98.5066 142.105 93.8716 140.933 91.8161C145.012 89.2356 149.201 82.8393 145.57 79.7882C152.665 72.3353 148.866 63.9436 141.099 65.8801Z" fill="white"/>
<path d="M72.8215 68.429C72.8215 67.8494 73.5054 66.5809 74.8694 66.5809C75.6357 66.5809 76.7011 67.2697 76.7011 68.5022V74.6998C76.7011 75.4972 76.104 76.3666 74.9114 76.3666C73.7194 76.3666 72.8221 75.4972 72.8221 74.6637V68.429H72.8215ZM74.698 77.092C75.5511 77.092 81.1341 77.092 81.1341 71.6913C81.1341 66.2906 76.4893 65.7835 74.9114 65.7835C73.8471 65.7835 68.2198 66.0739 68.2198 71.4741C68.2198 76.8742 73.8471 77.092 74.6985 77.092M83.5209 66.8347C83.8178 66.9799 83.9461 67.3423 83.9461 67.6682V75.2434C83.9461 75.787 83.6896 76.258 83.3501 76.3666C83.0095 76.4758 83.0935 76.8382 83.4347 76.8382H88.6771C89.1454 76.8382 89.0608 76.5124 88.6771 76.4398C88.2939 76.3666 87.9528 76.0042 87.9528 75.5698V66.9062C87.9528 66.2906 87.782 66.1459 87.3563 66.1459H83.6475C82.4539 66.1459 83.2202 66.689 83.5209 66.8347ZM94.7721 71.0385C94.7721 70.6766 94.8141 69.6254 96.4335 69.6254C96.9886 69.6254 98.0535 69.8427 98.0535 71.0751V74.5917C98.0535 74.9901 97.6277 76.222 96.3489 76.222C95.0696 76.222 94.7721 75.0256 94.7721 74.4825V71.0385ZM94.9828 77.128C97.3276 77.128 97.7964 76.3666 97.7964 76.3666L98.6058 76.9468H102.485C103.891 76.9468 102.869 76.4392 102.485 76.222C102.102 76.0042 101.805 75.3886 101.805 74.9175V66.9062C101.805 66.5078 101.633 66.2906 101.292 66.2906C100.951 66.2906 100.737 66.218 99.6712 66.218C99.6712 66.218 98.3084 66.218 97.0727 66.2906C95.7551 66.3681 97.1163 66.7621 97.4132 66.9062C97.7123 67.052 98.1806 67.523 98.1806 67.7413V68.7194C98.1806 68.9732 97.9241 69.1178 97.7123 69.0818C97.4978 69.0458 97.4132 68.864 95.6656 68.864C93.9174 68.864 90.3811 69.9884 90.3811 72.8511C90.3811 75.7155 92.6413 77.128 94.9822 77.128M64.5968 80.3679C64.9816 80.4427 65.5781 80.9629 66.1321 81.4836C66.6861 82.0037 66.9416 82.5615 66.9416 82.8579C66.9416 83.1559 66.899 87.1708 66.899 87.691C66.899 88.2111 66.601 88.6942 66.0475 89.1035C65.493 89.5129 65.493 89.8469 66.0055 89.8469H68.5615C69.67 89.8469 68.8595 89.3262 68.5615 89.2154C68.2635 89.1035 67.7515 88.7313 67.7515 88.323V84.3452C67.7515 83.7503 68.1358 83.7137 68.3912 83.8622C68.6461 84.0112 72.6523 88.5452 73.0797 88.9916C73.5054 89.4376 73.8471 89.735 74.2286 89.8851C74.6134 90.0325 75.9353 89.9211 76.5728 89.9211C77.213 89.9211 77.0002 89.3262 77.0002 88.9174C77.0002 88.5081 77.1694 82.3754 77.1694 81.966C77.1694 81.5578 77.4696 80.9629 77.6813 80.7762C77.8953 80.5906 79.8553 79.773 76.5728 79.773C73.2914 79.773 75.5085 80.5546 75.6782 80.7402C75.8502 80.9263 76.1476 81.8542 76.2311 82.7842C76.3185 83.7137 76.1913 86.5393 76.1913 86.5393C76.1913 86.5393 75.509 86.3892 75.0833 86.0552C74.656 85.7212 73.8891 84.7917 72.6108 83.3054C71.3309 81.8181 69.2852 79.8101 69.2852 79.8101C69.2852 79.8101 68.1336 79.7828 67.0278 79.7353C66.1327 79.6982 65.493 79.7353 64.6836 79.7353C63.8731 79.7353 64.2142 80.2937 64.5968 80.3679ZM86.9726 84.1596V88.1003C86.9726 88.5452 86.4595 89.6985 85.1829 89.6985C83.9041 89.6985 83.3501 88.5834 83.3501 88.0998C83.3501 87.6173 83.3075 84.6066 83.3075 84.1973C83.3075 83.7885 83.5204 82.1898 85.1392 82.1898C85.7789 82.1898 86.9731 82.8966 86.9731 84.1596H86.9726ZM79.2587 85.8331C79.2587 88.5457 81.389 90.4424 85.1829 90.4424C88.974 90.4424 91.1048 88.8066 91.1048 85.5722C91.1048 82.3377 87.3999 81.4459 84.8854 81.4459C81.9856 81.4459 79.2582 83.1193 79.2582 85.8331M92.9497 89.6171C93.8481 89.6171 94.5778 88.9818 94.5778 88.198C94.5778 87.4132 93.8481 86.7779 92.9497 86.7779C92.0491 86.7779 91.3204 87.4132 91.3204 88.1975C91.3204 88.9818 92.0491 89.6171 92.9497 89.6171ZM99.8857 79.4897C99.2897 79.6016 98.9917 79.6016 98.4361 79.266C97.8826 78.9325 97.4973 79.5269 97.2429 80.0104C96.9886 80.4935 96.4335 82.4638 96.2943 82.8262C95.9974 83.6062 96.892 83.4212 97.1032 83.0489C97.3177 82.6767 97.7123 81.9431 98.5633 81.9431C99.4163 81.9431 100.696 82.5752 101.888 82.5752C102.62 82.5752 102.974 82.424 103.125 82.5004C103.361 82.6205 103.017 83.0298 102.186 83.3928C100.823 83.9877 98.9917 85.809 98.9917 87.4448C98.9917 89.0811 100.823 90.307 102.314 90.307C104.146 90.307 105.818 89.0462 106.449 88.114C106.774 87.6348 106.664 87.2865 106.491 87.1468C105.98 86.7375 105.385 87.3706 104.956 87.3706C104.531 87.3706 103.636 86.887 103.636 85.8462C103.636 83.6531 106.704 81.3105 107.257 80.2702C107.813 79.2288 106.788 79.0809 106.45 79.3042C106.107 79.5269 105.596 79.7867 104.785 79.7867C104.518 79.7867 103.043 79.3784 101.633 79.3784C100.78 79.3784 100.482 79.3784 99.8857 79.4903M117.406 79.9111C117.568 79.9171 117.729 79.8903 117.881 79.8325C118.032 79.7747 118.17 79.6869 118.287 79.5745C118.403 79.4621 118.496 79.3273 118.56 79.1782C118.623 79.0291 118.656 78.8688 118.656 78.7068C118.656 78.5448 118.623 78.3844 118.56 78.2354C118.496 78.0863 118.403 77.9515 118.287 77.8391C118.17 77.7266 118.032 77.6389 117.881 77.5811C117.729 77.5232 117.568 77.4965 117.406 77.5025C117.094 77.514 116.799 77.6459 116.583 77.8705C116.366 78.0951 116.245 78.3949 116.245 78.7068C116.245 79.0187 116.366 79.3185 116.583 79.5431C116.799 79.7677 117.094 79.8996 117.406 79.9111ZM54.1359 79.6044C54.3742 79.6041 54.6072 79.5333 54.8052 79.4007C55.0033 79.2681 55.1576 79.0798 55.2486 78.8595C55.3396 78.6393 55.3633 78.397 55.3166 78.1632C55.27 77.9295 55.155 77.7149 54.9864 77.5465C54.8178 77.3781 54.603 77.2634 54.3692 77.2171C54.1354 77.1707 53.8931 77.1948 53.673 77.2861C53.4529 77.3774 53.2648 77.532 53.1324 77.7302C53.0001 77.9284 52.9296 78.1614 52.9297 78.3998C52.9303 78.7193 53.0576 79.0255 53.2838 79.2513C53.5099 79.477 53.8164 79.6038 54.1359 79.6038M70.831 95.8087C70.7267 96.2203 69.6755 96.1051 69.6755 96.1051C69.5886 96.0945 69.5024 96.079 69.4173 96.0587L69.038 95.9626C69.0042 95.9539 68.9752 95.9321 68.9574 95.902C68.9396 95.8719 68.9344 95.836 68.943 95.8022L69.1674 94.9213C69.176 94.8877 69.1975 94.8588 69.2272 94.841C69.2569 94.8231 69.2925 94.8176 69.3262 94.8257L69.8632 94.9627C70.6465 95.1609 70.9303 95.4119 70.831 95.8087ZM70.7655 98.0645C70.6465 98.529 69.318 98.3473 69.318 98.3473C69.2313 98.3351 69.1453 98.3184 69.0604 98.297L68.4818 98.1508C68.4485 98.1419 68.42 98.1203 68.4027 98.0905C68.3853 98.0607 68.3804 98.0253 68.389 97.9919L68.6401 96.9953C68.6491 96.9616 68.6709 96.9328 68.7009 96.915C68.7309 96.8973 68.7667 96.892 68.8006 96.9003L69.4261 97.0586C70.5652 97.3484 70.8872 97.5837 70.7655 98.0645ZM71.5907 94.5168C71.2354 94.3367 71.0116 94.2641 70.2972 94.0829L67.8492 93.4618C67.8325 93.4573 67.815 93.4563 67.7978 93.4586C67.7806 93.461 67.764 93.4667 67.7491 93.4755C67.7341 93.4843 67.721 93.4959 67.7106 93.5098C67.7001 93.5236 67.6925 93.5394 67.6882 93.5562L66.4329 98.5012C66.4243 98.535 66.4294 98.5707 66.447 98.6008C66.4645 98.6309 66.4932 98.653 66.5268 98.6622L69.5025 99.4236C70.0958 99.5748 70.4636 99.6272 70.8009 99.6239C71.6988 99.6173 72.3172 99.2216 72.4837 98.565C72.6572 97.8795 72.3019 97.3261 71.398 96.8539C72.0175 96.783 72.4651 96.4752 72.5754 96.0407C72.7129 95.4987 72.3123 94.8781 71.5907 94.5168ZM78.1082 97.2054C78.0585 97.5477 77.3833 97.6639 77.3833 97.6639C77.3049 97.677 77.2252 97.6807 77.1459 97.6748C77.0886 97.6694 77.0089 97.6612 76.9734 97.6585C76.9374 97.6541 76.849 97.6443 76.7769 97.6339L76.3179 97.5673C76.3008 97.5649 76.2844 97.5591 76.2696 97.5503C76.2547 97.5415 76.2418 97.5298 76.2315 97.5159C76.2213 97.5021 76.2139 97.4863 76.2098 97.4695C76.2057 97.4528 76.205 97.4353 76.2077 97.4183L76.3458 96.4648C76.3506 96.4304 76.3689 96.3994 76.3967 96.3785C76.4244 96.3576 76.4593 96.3486 76.4937 96.3534L77.2343 96.4593C77.8713 96.5516 78.1677 96.7999 78.1082 97.2054ZM79.9448 101.008L79.8433 100.766L79.7816 100.621C79.7543 100.553 79.7074 100.445 79.6795 100.379L79.644 100.297C79.6168 100.231 79.5693 100.123 79.542 100.056L79.3837 99.6856C79.1403 99.0868 78.8805 98.7386 78.5344 98.5459C78.8548 98.4804 78.9744 98.4422 79.1741 98.3516C79.5846 98.1497 79.8509 97.8058 79.9071 97.4161C79.9786 96.9183 79.6964 96.3764 79.1878 96.026C78.7724 95.752 78.4154 95.6439 77.4139 95.4998L74.8906 95.1363C74.8561 95.1316 74.8212 95.1407 74.7934 95.1617C74.7656 95.1827 74.7472 95.2137 74.7422 95.2482L74.0163 100.298C74.0136 100.315 74.0143 100.332 74.0185 100.349C74.0226 100.366 74.03 100.382 74.0404 100.396C74.0507 100.409 74.0637 100.421 74.0786 100.43C74.0935 100.438 74.1099 100.444 74.1271 100.446L75.6106 100.66C75.6446 100.665 75.6789 100.655 75.7062 100.634C75.7334 100.614 75.7514 100.583 75.7563 100.549L76.0297 98.6442C76.0353 98.6096 76.0541 98.5785 76.0823 98.5577C76.1105 98.5369 76.1457 98.528 76.1804 98.5328L76.3026 98.5508C76.6067 98.5945 76.6476 98.6011 76.7939 98.6529C77.1093 98.7697 77.5307 99.4989 77.5307 99.4989C77.5662 99.56 77.6186 99.6665 77.6453 99.7336L77.7457 99.9792C77.773 100.046 77.8183 100.156 77.8451 100.223L77.8969 100.352C77.9253 100.418 77.969 100.528 77.9952 100.595L77.999 100.61C78.0475 100.742 78.1014 100.872 78.1606 100.999C78.1687 101.017 78.2353 101.039 78.3079 101.048L79.9399 101.284C80.0125 101.295 80.0616 101.281 80.0518 101.256C80.0409 101.23 80.0081 101.155 79.9808 101.088L79.9448 101.008ZM85.7123 99.5284L83.8282 99.4803C83.755 99.4782 83.7228 99.4258 83.7572 99.3619L84.7086 97.5427C84.7424 97.4794 84.7959 97.4794 84.8286 97.5438L85.7838 99.4143C85.8165 99.4787 85.7838 99.53 85.7128 99.5289L85.7123 99.5284ZM85.846 96.2765C85.8251 96.2429 85.7967 96.2147 85.7629 96.194C85.7292 96.1734 85.6911 96.1609 85.6517 96.1575L83.8997 96.1155C83.8605 96.1162 83.8222 96.1268 83.7882 96.1461C83.7541 96.1655 83.7255 96.193 83.7048 96.2263L80.8885 101.291C80.853 101.354 80.883 101.406 80.9556 101.408L82.5319 101.447C82.5712 101.447 82.6097 101.436 82.6437 101.416C82.6776 101.396 82.706 101.368 82.7262 101.334L83.1519 100.519C83.1716 100.485 83.1994 100.457 83.2327 100.437C83.2661 100.417 83.3041 100.406 83.343 100.404L86.2002 100.476C86.2392 100.48 86.2768 100.492 86.3097 100.513C86.3427 100.534 86.3702 100.563 86.3896 100.597L86.8181 101.439C86.8374 101.473 86.8649 101.502 86.8983 101.523C86.9317 101.544 86.9698 101.556 87.0091 101.559L88.6165 101.599C88.6886 101.601 88.7202 101.55 88.6864 101.487L85.846 96.2765ZM96.6458 95.46L95.1973 95.6073C95.1801 95.6091 95.1634 95.6142 95.1482 95.6225C95.133 95.6307 95.1196 95.6419 95.1088 95.6553C95.0979 95.6688 95.0898 95.6842 95.085 95.7008C95.0801 95.7174 95.0786 95.7348 95.0805 95.752L95.3736 98.6365C95.379 98.7097 95.337 98.7342 95.2792 98.6938L91.4612 96.0734C91.3899 96.0297 91.3069 96.0086 91.2233 96.0129L89.9063 96.146C89.8891 96.1477 89.8724 96.1527 89.8572 96.1609C89.842 96.169 89.8286 96.1802 89.8178 96.1936C89.8069 96.207 89.7989 96.2225 89.7941 96.239C89.7894 96.2556 89.788 96.273 89.79 96.2901L90.3058 101.366C90.3074 101.383 90.3124 101.4 90.3205 101.415C90.3286 101.43 90.3396 101.444 90.3529 101.455C90.3661 101.466 90.3814 101.474 90.3979 101.479C90.4144 101.484 90.4317 101.486 90.4488 101.484L91.9066 101.336C91.9412 101.332 91.9729 101.315 91.9952 101.288C92.0174 101.261 92.0285 101.227 92.0262 101.192L91.7161 98.1497C91.7074 98.0787 91.7516 98.0531 91.8095 98.094L95.7665 100.857C95.8376 100.901 95.9207 100.923 96.0045 100.919L97.1889 100.798C97.2232 100.794 97.2546 100.777 97.2763 100.75C97.298 100.723 97.3082 100.689 97.3046 100.654L96.7905 95.5778C96.7868 95.5433 96.7695 95.5115 96.7426 95.4896C96.7156 95.4676 96.681 95.4571 96.6464 95.4605M103.206 98.3942C102.871 98.588 101.871 98.8478 101.871 98.8478C101.801 98.8647 101.687 98.892 101.616 98.9083L101.185 99.0039C101.151 99.0114 101.115 99.0051 101.085 98.9864C101.055 98.9677 101.034 98.9381 101.026 98.904L100.362 95.9212C100.354 95.8871 100.361 95.8515 100.38 95.8221C100.398 95.7928 100.428 95.7721 100.462 95.7645L101.192 95.6019C101.902 95.4447 102.166 95.4092 102.543 95.4474C103.331 95.5129 103.858 95.9441 104.014 96.658C104.172 97.3643 103.874 98.0034 103.206 98.3942ZM105.271 95.276C104.855 94.8285 104.141 94.4873 103.406 94.3929C102.993 94.3307 102.44 94.34 101.945 94.4109C101.72 94.4448 101.541 94.4775 101.17 94.5594L98.5229 95.1478C98.5062 95.1515 98.4904 95.1585 98.4764 95.1684C98.4624 95.1783 98.4506 95.1909 98.4415 95.2054C98.4325 95.22 98.4264 95.2361 98.4237 95.253C98.421 95.2699 98.4217 95.2872 98.4257 95.3039L99.532 100.285C99.5395 100.319 99.56 100.348 99.589 100.367C99.618 100.385 99.6533 100.392 99.6871 100.385L102.209 99.8318C102.817 99.6965 103.364 99.5262 103.746 99.3608C105.295 98.6949 106.054 97.5346 105.774 96.2754C105.689 95.8835 105.517 95.5424 105.271 95.276Z" fill="white"/>
</svg>
