<svg width="280" height="39" viewBox="0 0 280 39" fill="none" xmlns="http://www.w3.org/2000/svg">
<g clip-path="url(#clip0_304_324)">
<path d="M91.47 14.1044H96.744V14.2623L94.9387 15.8291C94.8565 18.2508 94.8284 20.6739 94.8545 23.0968C94.8545 25.3412 94.9387 27.4355 95.0542 29.3826H92.9552C92.941 29.2185 92.8693 29.0645 92.7525 28.9478C92.6071 28.7795 92.4664 28.6071 92.3306 28.431L83.2482 17.162C83.2482 20.6193 83.303 24.0835 83.4166 27.6383L85.3971 29.0979V29.3027H80.1496V29.0979L81.9471 27.6383C82.1125 24.5768 82.1125 20.6476 81.9471 15.7745L79.7952 14.2633V14.1044H84.3692C84.702 14.6523 85.079 15.171 85.497 15.6585C86.0218 16.3625 86.6885 17.1727 87.5099 18.1331C88.3313 19.0944 89.2134 20.2049 90.2286 21.4812C91.2439 22.7575 92.3903 24.1586 93.6552 25.779C93.6552 23.8865 93.6366 22.1335 93.6288 20.4692C93.6209 18.8039 93.571 17.2614 93.5553 15.8399L91.4798 14.273L91.47 14.1044ZM105.902 15.4947L107.668 14.2652V14.1092H101.478V14.2652L103.256 15.4947C103.278 19.5546 103.278 23.6379 103.256 27.7934L101.42 29.0599V29.2481H107.752V29.0589L105.914 27.7934C105.836 23.829 105.836 19.7672 105.914 15.4947H105.902ZM123.31 27.9542C121.127 28.0439 119.038 28.0439 117.046 27.9542C117.01 25.9555 117.01 23.9704 117.046 21.9989C118.654 21.9596 120.262 21.9424 121.87 21.9473L123.052 23.674H123.224V18.9852H123.052L121.87 20.748C119.151 20.748 117.516 20.7197 117.01 20.6895C116.986 19.8315 116.952 18.9638 116.952 18.0999C116.952 17.2351 116.952 16.3703 116.986 15.4304C117.941 15.3582 118.981 15.3446 119.999 15.3446C121.016 15.3446 122.098 15.3582 123.224 15.3582L124.512 17.1083H124.682V14.1053H112.653V14.2623L114.409 15.4947C114.451 19.0242 114.451 23.1017 114.409 27.7963L112.659 29.057V29.2481H124.992V25.8824H124.818L123.31 27.9542ZM70.2439 14.2623L72.2851 15.8291C72.3037 17.2507 72.3292 18.7853 72.3458 20.4584C72.3615 22.1306 72.3771 23.8758 72.3771 25.7683C71.1563 24.1478 70.0158 22.739 68.9917 21.4705C68.0847 20.3418 67.1618 19.2259 66.223 18.1233C65.4232 17.1883 64.7858 16.3517 64.2474 15.6478C63.8352 15.1557 63.4565 14.6369 63.1137 14.0946H58.5514V14.2526L60.6837 15.7853C60.8521 20.6447 60.8521 24.5876 60.6837 27.6481L58.9127 29.1086V29.3134H64.1602V29.1086L62.1797 27.6481C62.0671 24.0932 61.9858 20.6291 61.9858 17.1727L71.0809 28.4505C71.2268 28.6153 71.3629 28.7879 71.4872 28.9692C71.6076 29.0862 71.684 29.2383 71.7055 29.4041H73.8046C73.6542 27.3119 73.5824 25.2148 73.5892 23.1173C73.5735 20.9138 73.5892 18.4694 73.6939 15.8496L75.4973 14.2838V14.1258H70.2488L70.2439 14.2623ZM4.40372 10.2833L6.76511 11.7283L6.9198 28.001C6.9198 28.6679 6.9198 29.2295 6.89337 29.7375C6.86957 30.1939 6.82055 30.6486 6.74651 31.0996C6.67113 31.4993 6.54679 31.8893 6.37644 32.2598C6.18651 32.6303 5.95253 32.9784 5.6784 33.2953C5.31818 33.7275 4.87136 34.0802 4.36651 34.3307C3.8419 34.5879 3.26092 34.7099 2.67672 34.6856C2.74925 34.6109 2.80644 34.5228 2.84511 34.4263C2.89896 34.3346 2.94106 34.2362 2.97043 34.1338C3.00274 33.9983 3.01742 33.8588 3.01546 33.7194C3.01645 33.5622 2.97952 33.4071 2.90777 33.267C2.82308 33.098 2.71715 32.9404 2.59253 32.798C2.45066 32.6743 2.29051 32.573 2.1177 32.4977C1.94139 32.407 1.74634 32.3583 1.54791 32.3554C1.15078 32.3613 0.770862 32.5179 0.485674 32.7932C0.334905 32.9287 0.21938 33.0983 0.14987 33.2875C0.0519678 33.4805 7.9724e-05 33.6931 7.9724e-05 33.9086C-0.00299013 34.2154 0.0826547 34.5166 0.246793 34.7763C0.405394 35.0201 0.618821 35.2268 0.868471 35.3789C1.12497 35.53 1.40302 35.6421 1.69281 35.7133C1.97868 35.7942 2.27435 35.8352 2.57197 35.8352C3.1591 35.8325 3.74195 35.7353 4.29798 35.5475C4.83973 35.3593 5.35297 35.0978 5.8233 34.7705C6.30791 34.4243 6.75337 34.0256 7.15085 33.5829C7.55535 33.1063 7.90325 32.5848 8.18763 32.0288C8.45001 31.5471 8.69085 31.0811 8.9033 30.6228C9.14988 30.1549 9.33763 29.6584 9.46232 29.1447C9.62875 28.586 9.74819 28.0137 9.81966 27.4365C9.90386 26.7365 9.93714 26.0306 9.91658 25.3256C9.90092 24.4949 9.88232 23.6633 9.86665 22.7906C9.85099 21.919 9.84316 20.9323 9.81966 19.8364C9.79616 18.7415 9.78833 17.5481 9.77169 16.2123C9.75602 14.8766 9.74036 13.2922 9.74036 11.5518L11.6984 10.2989V10.1234H4.40372V10.2833ZM29.5939 24.7514C29.9236 23.7642 30.0809 22.728 30.059 21.6879C30.0678 20.7373 29.9395 19.7903 29.6781 18.876C29.4503 18.0811 29.0863 17.3314 28.6022 16.6598C28.1404 16.022 27.5312 15.5042 26.826 15.1504C26.1209 14.7966 25.3405 14.617 24.551 14.627C23.7556 14.6181 22.9704 14.805 22.265 15.171C21.5945 15.5423 21.0143 16.0559 20.5654 16.6754C20.0745 17.3376 19.7089 18.0833 19.4865 18.876C19.2418 19.7935 19.1204 20.7392 19.1272 21.6879C19.1117 22.6928 19.2588 23.6936 19.5629 24.6519C19.8223 25.4709 20.2374 26.2314 20.7857 26.8973C21.2823 27.4802 21.8873 27.9619 22.5675 28.316C23.2377 28.6164 23.9629 28.7761 24.6978 28.7849C25.3859 28.7743 26.0648 28.6271 26.695 28.352C27.3447 27.9907 27.9222 27.5135 28.3985 26.9441C28.9333 26.2942 29.3408 25.5501 29.5998 24.7504L29.5939 24.7514ZM31.875 17.471C32.2618 18.0853 32.5643 18.7483 32.7748 19.4405C33.274 21.2183 33.1624 23.1113 32.4576 24.8186C32.0377 25.7864 31.4355 26.6652 30.6836 27.4073C29.9422 28.1801 29.0491 28.7928 28.0598 29.2071C27.0387 29.7375 25.9412 29.8409 24.7585 29.8409C23.5739 29.8409 22.4774 29.7375 21.4514 29.2305C20.4462 28.8056 19.5298 28.1971 18.7493 27.4365C17.9669 26.7062 17.3417 25.8252 16.9117 24.8469C16.4618 23.8547 16.2346 22.7766 16.246 21.6879C16.2528 20.0597 16.7492 18.4704 17.6724 17.121C18.5981 15.7686 19.9047 14.719 21.4279 14.1044C22.5109 13.6668 23.6712 13.4503 24.8398 13.4677C25.5298 13.4625 26.2174 13.5497 26.884 13.727C27.5576 13.9045 28.2037 14.1755 28.8019 14.5295C29.4263 14.872 29.9937 15.3088 30.4839 15.8243C31.0343 16.2843 31.5012 16.835 31.8643 17.4525L31.875 17.471ZM47.8292 14.2438L49.5943 15.4918V20.671C46.8374 20.6837 44.1373 20.6837 41.4606 20.671V15.4928L43.2258 14.2623V14.1044H37.0864V14.2623L38.8046 15.4928V27.7904L37.0864 29.0599V29.2481H43.218V29.057L41.4528 27.7875V21.8946C44.1392 21.8683 46.8394 21.8683 49.5865 21.8946V27.7895L47.8184 29.0589V29.2471H53.9529V29.056L52.2132 27.7875C52.1643 23.9363 52.1643 19.8773 52.2132 15.4889L53.9529 14.2594V14.1014H47.8292V14.2438ZM187.213 10.3087C187.507 10.4822 187.807 10.7026 188.108 10.9025C188.41 11.1014 188.696 11.3237 188.958 11.5284C188.402 13.5252 187.857 15.3036 187.41 16.9426C186.964 18.5806 186.529 19.928 186.182 21.1136C185.836 22.2992 185.56 23.2362 185.342 24.0055C185.193 24.5189 185.06 25.0368 184.944 25.5587L180.687 11.7146C180.984 11.4221 181.262 11.153 181.524 10.92C181.778 10.7055 182.046 10.5066 182.327 10.3272V10.1488H175.549V10.3477L177.255 11.6425C176.805 13.0247 176.373 14.4126 175.959 15.8057C175.573 17.1005 175.203 18.3203 174.862 19.462C174.521 20.6027 174.211 21.6723 173.914 22.6571C173.619 23.6408 173.361 24.5876 173.11 25.4865L169.073 11.6766L170.727 10.3272V10.1488H164.188V10.3272C164.468 10.5476 164.713 10.7289 164.903 10.8966C165.068 11.0165 165.225 11.1452 165.373 11.2827C165.48 11.3705 165.577 11.4699 165.659 11.5801C165.741 11.6698 165.796 11.78 165.817 11.8989C166.032 12.559 166.321 13.4882 166.724 14.6718C167.121 15.9169 167.561 17.3072 168.081 18.8477C168.601 20.3882 169.17 22.0769 169.755 23.8963C170.37 25.7871 170.957 27.6862 171.519 29.5932H173.671C173.649 29.5261 173.638 29.456 173.639 29.3855C173.638 29.2588 173.653 29.132 173.684 29.0072C173.71 28.8902 173.755 28.7489 173.781 28.6172C173.836 28.5025 173.877 28.3813 173.902 28.2565C174.088 27.5857 174.284 26.872 174.487 26.0949C174.689 25.3178 174.92 24.4823 175.167 23.635C175.413 22.7887 175.691 21.9034 175.914 21.0025C176.138 20.1006 176.421 19.2309 176.702 18.3427C176.983 17.4554 177.192 16.6394 177.452 15.8272C177.673 14.9614 177.929 14.2165 178.134 13.5359L183.233 29.5874H185.295C185.374 29.2539 185.531 28.6124 185.807 27.6432C186.083 26.675 186.439 25.4943 186.906 23.985C187.452 22.2252 187.993 20.4637 188.528 18.7005C189.145 16.6676 189.84 14.2994 190.593 11.7741C191.029 11.3529 191.38 11.0497 191.667 10.7903C191.953 10.532 192.112 10.376 192.228 10.296V10.1507H187.213V10.3087ZM202.263 22.5167L199.738 16.0963L197.377 22.5167H202.263ZM207.301 27.5779L209.069 29.1038V29.2929H202.315V29.1038L204.293 27.6383L202.698 23.6408C200.903 23.6213 198.979 23.6213 196.925 23.6408L195.459 27.6383L197.403 29.1038V29.2929H192.215V29.1038L193.999 27.6383L199.321 13.8197H201.528L207.301 27.5779ZM258.658 27.9952C256.56 28.0859 254.459 28.0859 252.361 27.9952C252.326 26.0102 252.326 24.0248 252.361 22.0399C253.497 22.0097 255.093 21.9882 257.208 21.9882L258.402 23.7179H258.58V19.0271H258.402L257.208 20.7899C254.45 20.7899 252.852 20.7636 252.327 20.7305C252.301 19.8675 252.287 19.0042 252.285 18.1409C252.285 17.2712 252.285 16.4112 252.304 15.4713C253.25 15.3992 254.237 15.3865 255.284 15.3865H258.58L259.834 17.1366H260.003V14.1482H247.958V14.3072L249.693 15.5396C249.752 19.0681 249.752 23.1436 249.693 27.8372L247.958 29.0979V29.2949H260.306V25.9292H260.125L258.658 27.9962V27.9952ZM271.7 21.6158C273.012 21.6158 274.02 21.3564 274.705 20.7636C275.39 20.1708 275.754 19.3811 275.754 18.3222C275.755 17.9225 275.677 17.5265 275.523 17.1571C275.378 16.7914 275.15 16.4639 274.857 16.1996C274.55 15.8953 274.181 15.6588 273.775 15.5054C273.329 15.3377 272.854 15.2569 272.377 15.2675H271.994C271.811 15.2675 271.622 15.2675 271.401 15.2929C271.181 15.3192 270.928 15.2929 270.685 15.3134C270.456 15.335 270.227 15.3473 269.997 15.3504L269.971 21.5846C270.11 21.6011 270.251 21.607 270.391 21.6031C270.522 21.6031 270.705 21.6031 270.886 21.6187H271.706L271.7 21.6158ZM279.661 28.8503C279.761 28.9517 279.875 29.0394 280 29.1086V29.2997H276.497L272.902 23.3171C272.774 23.1034 272.593 22.9254 272.377 22.7994C272.135 22.7135 271.879 22.6696 271.622 22.6697H270.958C270.648 22.6697 270.322 22.698 269.955 22.7156L270.013 27.9094L271.747 29.1038V29.2949H265.466V29.1038L267.302 27.8402V15.5961L265.567 14.3013V14.1492H272.71C273.551 14.132 274.39 14.2304 275.203 14.4417C275.888 14.6104 276.538 14.8968 277.124 15.288C277.619 15.6434 278.038 16.0943 278.354 16.614C278.643 17.1122 278.798 17.6758 278.804 18.2501C278.799 18.7914 278.664 19.3238 278.412 19.8032C278.154 20.2775 277.796 20.6908 277.363 21.0152C276.891 21.3807 276.358 21.6603 275.788 21.841C275.137 22.0457 274.461 22.1627 273.778 22.19C274.242 22.2316 274.691 22.3769 275.09 22.6151C275.458 22.892 275.76 23.246 275.974 23.6506L278.396 27.3527C278.507 27.5184 278.633 27.6715 278.774 27.8109C278.916 27.9923 279.068 28.2155 279.229 28.4066C279.388 28.549 279.554 28.7099 279.688 28.8473L279.661 28.8503ZM235.667 20.5179C236.796 19.4583 237.933 18.4072 239.078 17.3648C239.774 16.7325 240.48 16.1117 241.196 15.5025L243.513 14.3033V14.1541H238.343V14.3042L239.131 15.4801C238.592 16.0592 238.028 16.5799 237.49 17.1181C236.953 17.6573 236.381 18.1418 235.834 18.641C235.289 19.1402 234.785 19.6199 234.281 20.0597C233.778 20.4994 233.3 20.9372 232.844 21.2843C234.62 23.0393 236.645 25.2272 239.007 27.9094L238.341 29.1008V29.29H243.924V29.1008L242.736 27.9094C239.419 24.5437 237.071 22.1081 235.65 20.5179H235.667ZM232.853 15.5386L234.649 14.3042V14.1541H228.409V14.3042L230.177 15.5396C230.203 19.6219 230.203 23.6896 230.177 27.8372L228.34 29.1008V29.2929H234.674V29.1008L232.838 27.8372C232.811 23.7381 232.811 19.6388 232.838 15.5396L232.853 15.5386ZM222.822 27.9279H219.77C218.8 27.9279 217.933 27.9123 217.146 27.9123C217.093 23.7882 217.093 19.6637 217.146 15.5396L219.088 14.3354V14.1619H212.703V14.3354L214.454 15.5396C214.511 19.6219 214.511 23.6789 214.454 27.8372L212.703 29.1008V29.2929H224.472V25.9106H224.244L222.822 27.9279ZM136.676 24.1059C136.398 23.8758 136.152 23.363 136.152 22.659C136.184 21.9416 136.371 21.2395 136.7 20.6001C137.028 19.9607 137.49 19.3987 138.055 18.9521C139.534 17.8562 140.894 17.8045 141.324 17.6573C140.445 17.6777 139.938 17.1395 140.012 16.7993C140.03 16.7096 140.316 16.9845 140.799 17.0099C141.447 17.0411 141.925 16.8178 142.707 16.3059C142.93 16.1577 143.024 16.2591 142.996 16.4561C143.495 15.8867 143.814 15.1856 143.914 14.4388C144.153 14.8288 144.845 15.0238 145.273 15.1193C145.575 15.1876 146.766 15.4352 146.971 15.4352C146.869 15.3709 145.866 14.9984 145.396 14.8298C145.17 14.7541 144.948 14.6676 144.73 14.5704C144.572 14.5072 144.423 14.4246 144.286 14.3247C144.252 14.2993 144.22 14.2716 144.189 14.2418C144.15 14.2058 144.105 14.1638 144.063 14.12C143.445 13.384 142.916 12.5776 142.489 11.7176C142.12 11.0264 141.87 10.2781 141.752 9.50432C141.718 9.34479 141.699 9.18264 141.694 9.01974C141.683 8.83214 141.692 8.64392 141.72 8.45814C141.739 8.34863 141.779 8.2439 141.839 8.15004C141.867 8.09745 141.903 8.04864 141.943 8.00477C142.034 7.90044 142.144 7.8127 142.266 7.7464C142.294 7.73249 142.326 7.72453 142.358 7.72299C142.453 7.72299 142.187 7.98137 142.095 8.48642C141.92 9.34344 142.66 10.0396 142.906 10.2989C143.901 11.35 144.481 11.6162 144.969 12.3026C145.053 12.4215 144.969 12.443 144.833 12.443H144.772C144.528 12.4137 144.203 12.2616 144.316 12.4088C144.417 12.5367 144.544 12.6426 144.689 12.72C144.833 12.7975 144.991 12.8449 145.155 12.8593L145.262 12.8798C145.383 12.9002 145.501 12.9305 145.617 12.9675C145.677 12.9909 145.729 13.0094 145.787 13.0358L145.908 13.0972C145.96 13.12 146.009 13.1495 146.052 13.1849C146.082 13.2113 146.068 13.2347 145.963 13.2347H145.696C145.551 13.2473 145.394 13.2639 145.268 13.2659C145.171 13.2711 145.074 13.2711 144.976 13.2659C144.867 13.2651 144.757 13.2503 144.651 13.222C144.255 13.1128 143.833 12.9217 144.127 13.1732C144.161 13.2035 144.192 13.2317 144.227 13.2581C144.413 13.4433 144.66 13.5603 144.925 13.5847C145.022 13.5905 145.121 13.5847 145.218 13.5662C145.312 13.5506 145.407 13.5272 145.559 13.4989C145.718 13.4696 145.878 13.4501 146.04 13.4394C146.343 13.4111 146.649 13.4267 146.947 13.4862C146.978 13.493 147.011 13.493 147.042 13.4862C147.12 13.4599 147.068 13.3049 146.869 13.2269C146.774 13.1913 146.676 13.163 146.577 13.142C146.379 13.1121 146.196 13.0214 146.052 12.8827L146.026 12.8573C145.996 12.8164 145.961 12.7782 145.924 12.7433C145.872 12.6972 145.812 12.6617 145.746 12.6389L145.69 12.6165L145.648 12.5931C145.6 12.5592 145.559 12.5149 145.531 12.4634C145.506 12.4089 145.486 12.3525 145.47 12.2948C145.44 12.1919 145.403 12.0915 145.357 11.9945C144.972 11.3451 144.709 10.6616 144.158 10.0191C143.865 9.74027 143.59 9.44387 143.334 9.13187C143.24 8.95734 143.145 8.53517 143.26 8.52054C143.491 8.48934 144.166 9.73149 144.278 9.82997C144.339 9.87872 144.221 9.45459 144.147 9.21182C144.086 9.03312 144.011 8.85964 143.922 8.69312C143.793 8.44911 143.615 8.23483 143.397 8.06424C143.259 7.96869 143.114 7.88238 142.964 7.80587C142.885 7.75712 142.998 7.64987 143.407 7.87509C143.685 8.02817 143.811 8.04377 143.856 8.01744C143.653 7.77765 143.377 7.61003 143.069 7.53969C142.951 7.48704 143.494 7.23842 144.077 7.2979C144.555 7.35835 145.03 7.44414 145.499 7.55724C145.746 7.61087 145.528 7.38174 145.323 7.24329C145.073 7.10505 144.815 6.97976 144.552 6.86792C144.509 6.81625 145.076 6.83185 145.392 6.86792C145.596 6.89912 145.473 6.77237 145.21 6.67389C144.987 6.58907 144.72 6.59102 144.783 6.53739C144.874 6.49176 144.956 6.42804 145.022 6.35011C145.088 6.27218 145.138 6.18165 145.168 6.08402C145.245 5.78079 145.168 5.69792 145.207 5.64332C145.247 5.58872 145.623 6.00602 146.279 6.77432C146.952 7.57983 147.513 8.47183 147.947 9.42632C148.447 10.5261 148.763 11.6981 148.884 12.8973C148.884 12.8973 148.913 12.9782 148.987 12.8339C149.314 12.2792 149.577 11.0204 149.727 10.2209C149.758 9.95945 149.691 9.69563 149.54 9.47994C149.53 9.46406 149.52 9.44875 149.508 9.43412C149.304 9.17477 149.463 8.89787 149.488 8.58002C149.511 8.26119 149.257 8.19099 149.173 8.04377C149.026 7.78442 149.07 7.69667 149.07 7.69667C149.127 7.69667 149.291 7.67132 149.627 7.65572C149.915 7.63864 150.199 7.7217 150.433 7.89069C150.597 8.03109 150.794 8.47862 151.274 8.44742C151.411 8.4477 151.546 8.47911 151.669 8.53927C151.792 8.59942 151.899 8.68673 151.983 8.79452C152.07 8.91432 152.184 9.0119 152.316 9.07922C152.268 9.13071 152.23 9.19146 152.206 9.25781C152.181 9.32417 152.17 9.39475 152.174 9.46532C152.19 9.59597 152.245 9.71882 152.332 9.81632C152.377 9.87482 152.416 9.89432 152.429 9.81632C152.432 9.79431 152.432 9.77203 152.429 9.75002C152.424 9.67925 152.424 9.60823 152.429 9.53747C152.45 9.30737 152.547 9.27909 152.61 9.32004C152.643 9.35124 152.669 9.38829 152.683 9.43119C152.705 9.47019 152.725 9.51407 152.749 9.55307C152.809 9.66046 152.884 9.75892 152.972 9.84557C153.211 10.0601 153.493 10.2209 153.798 10.3223C153.872 10.3428 153.904 10.3223 153.862 10.296C153.366 9.94892 153.264 9.89237 153.14 9.71589C153.094 9.65069 153.05 9.58334 153.009 9.51407C152.98 9.46239 152.927 9.34052 152.854 9.20109C152.921 9.18976 152.985 9.16121 153.038 9.11822C153.093 9.07922 153.1 9.04802 153.069 9.02754C152.995 9.0026 152.915 8.99722 152.838 9.01194C152.798 9.01712 152.758 9.01712 152.718 9.01194H152.681C152.651 9.00971 152.621 9.00448 152.591 8.99634H152.549C152.335 8.83059 152.185 8.87447 152.093 8.73797C152.001 8.60049 152.196 8.67557 152.332 8.58489C152.468 8.49422 152.163 8.14224 152.069 8.29727C151.93 8.52542 151.876 8.26412 151.888 8.11397C151.913 7.97113 151.894 7.8243 151.835 7.69179L151.823 7.66547C151.804 7.61087 151.901 7.56212 151.949 7.54359C151.996 7.52604 152.012 7.54359 152.035 7.57479C152.083 7.63418 152.141 7.68497 152.206 7.72494H152.261C152.296 7.73778 152.332 7.74661 152.369 7.75127H152.4C152.451 7.75517 152.503 7.75517 152.555 7.75127C152.589 7.74939 152.621 7.74146 152.652 7.72787L152.728 7.69374C152.767 7.67326 152.801 7.64504 152.828 7.61087C152.841 7.5826 152.872 7.52019 152.81 7.49192C152.779 7.48658 152.748 7.48658 152.718 7.49192C152.649 7.49582 152.58 7.49582 152.51 7.49192H152.474C152.447 7.48845 152.421 7.4769 152.4 7.45877L152.337 7.36029C152.314 7.33058 152.289 7.30286 152.261 7.27742C152.121 7.15896 151.966 7.05961 151.799 6.98199C151.613 6.89269 151.438 6.7842 151.274 6.65829C151.19 6.57538 151.126 6.47341 151.088 6.36092C151.025 6.22052 150.975 6.08109 150.907 5.96507C150.839 5.84807 150.723 5.77007 150.797 5.72132C150.87 5.67257 151.059 5.72132 151.156 5.81687C151.193 5.86172 151.227 5.90949 151.256 5.95922H151.282C151.295 5.86952 151.302 5.77885 151.303 5.6872C151.32 5.56474 151.363 5.44734 151.429 5.34302C151.445 5.34302 151.429 5.43369 151.403 5.52924C151.403 5.56337 151.403 5.59457 151.384 5.62285C151.383 5.6342 151.383 5.64562 151.384 5.65697C151.38 5.69392 151.38 5.73117 151.384 5.76812C151.421 5.94167 151.461 6.24392 151.468 6.28487C151.476 6.3268 151.513 6.39992 151.592 6.38627C151.671 6.3736 151.77 6.23124 151.77 6.23124C151.775 6.24778 151.786 6.26215 151.8 6.2723C151.815 6.28246 151.832 6.28788 151.849 6.28779C151.862 6.28769 151.875 6.28496 151.887 6.27977C151.9 6.27458 151.911 6.26703 151.92 6.25757C151.955 6.21003 151.98 6.15502 151.991 6.09669V6.01674C151.991 5.99334 152.027 5.98554 152.038 5.96214L152.069 5.88707C152.083 5.84257 152.083 5.79507 152.069 5.75057C152.063 5.7326 152.053 5.71581 152.041 5.70085C151.97 5.61992 151.915 5.67744 151.915 5.67744C151.932 5.60867 151.932 5.53659 151.915 5.46782C151.891 5.37129 151.768 5.40542 151.768 5.40542C151.782 5.34936 151.782 5.29086 151.768 5.23479C151.749 5.13827 151.715 5.07684 151.634 5.08172C151.605 5.08525 151.577 5.09212 151.55 5.10219V5.0866C151.605 5.00177 152.017 5.01932 152.096 5.02517C152.142 5.02581 152.188 5.04117 152.225 5.06902C152.262 5.09688 152.29 5.13581 152.303 5.1802C152.327 5.23967 152.352 5.29719 152.374 5.33814H152.159C152.127 5.33814 152.19 5.37715 152.335 5.39275H152.429C152.466 5.40351 152.5 5.42231 152.528 5.44778C152.557 5.47324 152.579 5.50474 152.594 5.53997C152.641 5.7457 152.705 5.94752 152.786 6.1435C152.83 6.241 152.88 6.3346 152.935 6.42625C152.994 6.48194 153.041 6.54978 153.072 6.62515C153.085 6.66122 153.1 6.70997 153.122 6.78017C153.142 6.85037 153.187 6.90985 153.227 6.92545L153.3 6.9508C153.321 6.95482 153.341 6.96499 153.357 6.98004C153.372 6.99561 153.382 7.01528 153.386 7.03659V7.04927C153.386 7.06194 153.387 7.07559 153.4 7.08827C153.426 7.14774 153.455 7.15847 153.497 7.15262C153.534 7.14065 153.573 7.13537 153.612 7.13702C153.859 7.16335 153.854 7.30862 153.875 7.50557C153.875 7.52799 153.875 7.56212 153.898 7.5982C154.033 7.918 154.218 8.21537 154.447 8.47862C154.971 9.08214 155.562 9.98012 155.496 10.3555C155.46 10.5807 155.011 10.8167 154.796 10.8917C154.581 10.9668 153.378 11.037 152.038 10.843C151.314 10.7611 150.599 10.6187 149.899 10.4179C149.83 11.077 149.721 11.7312 149.571 12.3776C149.435 12.8954 149.177 13.7007 149.094 14.0634C149.061 14.0564 149.028 14.0476 148.996 14.0371L148.86 13.9913L148.521 13.884C148.327 13.8301 148.129 13.7904 147.929 13.7651C147.613 13.7217 147.293 13.7037 146.974 13.7114C146.777 13.7163 146.582 13.7426 146.391 13.7894C146.074 13.8635 146.181 13.9961 146.735 14.0478C147.053 14.0722 147.374 14.0624 147.69 14.0166C148.007 13.9974 148.326 14.0237 148.635 14.0946C148.703 14.1073 149.038 14.2116 149.038 14.2116L149.175 14.2467C149.538 14.3452 149.682 14.3871 150.002 14.4515C150.094 14.47 150.186 14.4875 150.264 14.5002L150.472 14.5246C150.62 14.5392 150.76 14.5499 150.881 14.5548C150.999 14.5665 151.119 14.5665 151.237 14.5548C151.265 14.5484 151.294 14.5484 151.321 14.5548C151.353 14.5704 151.348 14.6016 151.321 14.6426C151.288 14.6754 151.25 14.7036 151.209 14.7264L151.048 14.8093L150.867 14.9019C150.75 14.9636 150.638 15.0337 150.531 15.1115C150.401 15.2269 150.299 15.3716 150.236 15.5337C150.173 15.6958 150.149 15.8706 150.167 16.0436C150.227 16.4405 150.553 16.3342 150.489 16.5126C150.47 16.5723 150.429 16.6228 150.374 16.6548C150.32 16.6867 150.256 16.6978 150.194 16.6862C150.043 16.665 149.894 16.6338 149.747 16.5926C149.774 16.4609 149.883 16.3907 149.661 16.2201C149.524 16.1138 149.199 16.0934 149.361 16.3371C149.397 16.3927 149.437 16.4453 149.482 16.4941C149.482 16.4941 149.498 16.5097 149.482 16.5126H149.463L149.404 16.4921C149.007 16.3283 148.994 16.3781 148.879 16.2328C148.845 16.1905 148.82 16.1422 148.805 16.0904C148.794 16.0479 148.775 16.0077 148.75 15.9715C148.738 15.9489 148.718 15.9316 148.694 15.9227C148.669 15.9143 148.642 15.915 148.618 15.9247C148.585 15.9454 148.555 15.97 148.527 15.9978C148.48 16.0313 148.425 16.052 148.368 16.0578C148.31 16.0636 148.252 16.0544 148.199 16.031C148.175 16.0211 148.149 16.0142 148.123 16.0105C148.157 16.031 148.482 16.184 148.745 16.3059C148.698 16.6394 148.587 17.3414 148.482 17.4272C148.301 17.5822 147.931 16.7944 147.826 16.5594C147.825 16.5507 147.825 16.5418 147.826 16.5331L147.789 16.6062C147.769 16.6452 147.745 16.6862 147.719 16.7271C147.581 16.9307 147.419 17.117 147.236 17.2819C146.963 17.2339 146.687 17.212 146.41 17.2166C144.806 17.2166 142.998 18.2189 142.314 18.4548C142.224 18.4877 142.136 18.5255 142.051 18.5679C142.488 18.5399 142.919 18.453 143.332 18.3095C143.689 18.1917 144.044 18.0665 144.397 17.9342L144.556 17.8796L144.449 17.9985C144.095 18.3739 143.908 18.7444 143.032 19.3089C142.559 19.6035 142.05 19.8383 141.519 20.008C141.445 20.0333 141.369 20.0519 141.297 20.0753C139.353 20.6554 138.343 20.593 137.362 21.1478C136.753 21.4841 136.48 22.0038 136.545 22.4933C136.57 22.2881 136.64 22.0909 136.75 21.9159C136.861 21.7409 137.009 21.5924 137.183 21.4812C137.763 21.1385 138.407 20.9163 139.075 20.828C138.217 21.413 136.595 22.5888 136.737 24.0991C136.737 24.1293 136.724 24.143 136.682 24.0991L136.676 24.1059ZM147.889 12.4478C147.839 12.4683 147.798 12.506 147.774 12.5541C147.749 12.6021 147.744 12.6572 147.757 12.7092C147.771 12.7612 147.802 12.8065 147.847 12.8369C147.892 12.8674 147.946 12.8809 148 12.8749C148.05 12.8544 148.091 12.8167 148.115 12.7686C148.139 12.721 148.145 12.6662 148.132 12.6146C148.118 12.5626 148.086 12.5174 148.041 12.487C147.997 12.4566 147.943 12.4421 147.889 12.4478ZM147.598 11.5898C147.649 11.5711 147.69 11.5338 147.713 11.4857C147.736 11.4376 147.74 11.3823 147.724 11.3315C147.709 11.2983 147.685 11.2701 147.655 11.2503C147.624 11.2304 147.589 11.2196 147.552 11.2193C147.516 11.2186 147.48 11.2284 147.448 11.2476C147.425 11.2617 147.405 11.2805 147.39 11.3029C147.375 11.3253 147.365 11.3507 147.36 11.3773C147.356 11.404 147.357 11.4312 147.364 11.4573C147.372 11.4834 147.384 11.5076 147.401 11.5284C147.425 11.5565 147.456 11.5773 147.491 11.5884C147.526 11.5995 147.563 11.5993 147.598 11.5898ZM145.446 8.56442C145.42 8.63364 146.323 9.20792 147.089 9.98792C147.352 10.2473 147.561 10.532 147.63 10.607C147.63 10.607 147.834 10.8401 147.611 10.3974C147.414 10.0808 147.178 9.79028 146.908 9.53259C146.399 9.01487 146.002 8.69117 145.968 8.63949C145.908 8.53809 146.294 8.23292 146.215 8.20952C145.941 8.28459 145.681 8.40452 145.446 8.56442ZM147.183 6.17664C147.136 6.12453 147.082 6.07865 147.024 6.04015C146.989 6.04015 146.549 6.29852 146.793 6.28584H146.805C146.897 6.27024 147.031 6.24685 147.131 6.23417C147.16 6.23417 147.21 6.21564 147.183 6.17664ZM149.204 9.54234C149.238 9.32297 148.842 9.34637 148.897 9.49652L148.973 9.70614C148.999 9.71441 149.027 9.71651 149.054 9.71228C149.082 9.70805 149.108 9.69761 149.13 9.68177C149.153 9.66594 149.171 9.64506 149.184 9.62083C149.197 9.5966 149.204 9.5697 149.204 9.54234ZM145.302 2.39462C145.302 2.75147 145.827 2.91137 146.107 2.92795C146.179 2.92795 146.312 2.92795 146.37 2.9611C146.399 3.0469 146.323 3.16292 146.013 3.12197C145.961 3.11131 145.907 3.11252 145.855 3.12552C145.804 3.13852 145.756 3.16297 145.715 3.19705C145.674 3.23112 145.642 3.27414 145.621 3.32271C145.6 3.37127 145.59 3.42405 145.593 3.47687C145.57 3.8386 145.732 4.09795 145.709 4.2715C145.693 4.40605 145.593 4.41092 145.54 4.42164C145.506 4.42195 145.473 4.42891 145.441 4.44212C145.396 4.47137 145.465 4.62835 145.582 4.65467C145.63 4.66735 145.68 4.67319 145.729 4.67027C145.843 4.67027 145.882 4.61079 145.992 4.60787C146.062 4.61479 146.13 4.63324 146.194 4.66247C146.301 4.71001 146.398 4.77678 146.48 4.85942C146.549 4.93937 146.596 5.07685 146.641 5.0866C146.685 5.09732 146.829 4.92865 146.797 4.90525C146.76 4.90764 146.722 4.90092 146.687 4.88564C146.653 4.87036 146.622 4.84698 146.599 4.81749C146.551 4.73754 146.564 4.61274 146.512 4.47819C146.456 4.37198 146.418 4.25736 146.399 4.13889C146.396 4.08745 146.404 4.03596 146.424 3.98822C146.443 3.94047 146.473 3.89767 146.512 3.86297C146.55 3.82798 146.595 3.80153 146.644 3.78539C146.694 3.76925 146.746 3.76379 146.797 3.76937C146.919 3.78887 146.966 3.93219 146.986 4.06967C146.977 4.05367 146.965 4.03972 146.95 4.02872C146.934 4.017 146.916 4.00862 146.897 4.00409C146.878 3.99956 146.858 3.99899 146.839 4.0024C146.818 4.00695 146.8 4.0167 146.785 4.03067C146.761 4.06382 146.824 4.09307 146.853 4.11647C146.902 4.15547 146.941 4.20714 146.966 4.26662C146.99 4.31986 147.01 4.37537 147.024 4.43237C147.024 4.48112 147.024 4.50452 147.044 4.55327C147.066 4.69367 147.068 4.71122 147.1 4.72877C147.131 4.74827 147.383 4.9501 147.469 4.94425C147.556 4.93937 147.583 4.92865 147.561 4.90525C147.459 4.73487 147.427 4.53198 147.472 4.33877C147.494 4.25102 147.522 4.16327 147.556 4.07942C147.572 4.03555 147.645 4.0258 147.719 4.0336C147.787 4.03945 147.853 4.05895 147.913 4.0921L148.007 4.1506C148.052 4.17984 148.094 4.21202 148.089 4.23835C148.086 4.25184 148.08 4.26432 148.07 4.27442C148.07 4.27442 148.053 4.32317 148.07 4.32805C148.1 4.35437 148.13 4.37874 148.162 4.40117L148.186 4.42652C148.198 4.44374 148.207 4.4633 148.212 4.48404C148.212 4.52499 148.231 4.53767 148.293 4.57472C148.431 4.62444 148.579 4.64492 148.726 4.63322C148.746 4.63614 148.765 4.63614 148.784 4.63322C148.847 4.63322 149.007 4.64979 149.046 4.69172C149.084 4.83504 149.092 4.98617 149.068 5.13339C149.073 5.24942 149.063 5.36447 149.038 5.47757C149.029 5.5039 149.012 5.52656 148.989 5.54207C148.966 5.55757 148.938 5.56506 148.91 5.56337C148.861 5.55695 148.812 5.55695 148.763 5.56337C148.71 5.56337 148.684 5.65405 148.663 5.734C148.653 5.77211 148.634 5.80744 148.609 5.83734C148.587 5.85414 148.567 5.87238 148.548 5.89195C148.514 5.93211 148.492 5.98179 148.487 6.0343C148.485 6.07376 148.472 6.11195 148.451 6.14544C148.431 6.16505 148.413 6.18589 148.396 6.20785C148.368 6.24441 148.348 6.28617 148.336 6.33068C148.324 6.3752 148.321 6.4216 148.328 6.46719C148.329 6.51019 148.32 6.55294 148.302 6.59169C148.283 6.63045 148.255 6.66403 148.22 6.68949C148.151 6.72746 148.072 6.74563 147.993 6.74202C147.914 6.7384 147.837 6.71315 147.772 6.66902C147.7 6.62668 147.631 6.58114 147.564 6.53252C147.564 6.53252 147.538 6.51594 147.53 6.53252C147.522 6.54714 147.559 6.5959 147.64 6.6817C147.681 6.72652 147.725 6.76734 147.774 6.80357C148.17 7.06195 148.524 7.0366 148.587 6.80357C148.626 6.64075 148.815 6.48474 149.044 6.15909C149.272 5.83247 149.427 5.78567 149.594 5.40055C149.656 5.19385 149.692 4.98129 149.705 4.76679C149.511 4.70151 149.333 4.59806 149.18 4.4626C149.063 4.35535 148.956 4.23834 148.86 4.11354C148.694 3.86394 148.511 3.62605 148.312 3.4018C148.201 3.30709 148.084 3.22042 147.96 3.14245C147.911 3.10637 147.884 3.07225 147.905 3.05665C147.926 3.04202 147.961 3.05665 148.054 3.0859C148.433 3.2185 148.766 3.45444 149.015 3.76644C149.18 3.97607 149.23 4.1233 149.385 4.30757C149.498 4.44992 149.643 4.56399 149.81 4.63907C150.139 4.78337 150.504 4.83017 150.859 4.77362C151.106 4.70634 151.187 4.63127 151.172 4.55619C151.227 4.61435 151.286 4.66875 151.348 4.71902L151.39 4.74047C151.445 4.75997 151.503 4.74047 151.515 4.7629C151.518 4.77793 151.517 4.79339 151.511 4.80775C151.506 4.8225 151.498 4.83587 151.487 4.84675C151.495 4.86787 151.504 4.8884 151.515 4.90817C151.534 4.95204 151.702 4.96764 151.702 4.96764C151.702 4.96764 151.912 4.98617 151.904 4.96764C151.896 4.95009 151.92 4.92669 151.746 4.65954C151.572 4.5092 151.389 4.36921 151.198 4.2403C151.112 4.1779 151.036 4.2403 151.051 4.3339C151.059 4.38529 151.078 4.43446 151.106 4.47819C150.992 4.40325 150.863 4.35308 150.728 4.33097C150.507 4.31464 150.298 4.22309 150.136 4.07162C150.099 4.04627 150.104 4.01995 150.104 4.01995C150.299 3.68845 150.525 3.37645 150.778 3.0859C151.064 2.80315 151.348 2.61204 151.406 2.43264C151.463 2.25422 151.143 1.23925 150.002 0.621095C148.86 0.00197016 148.036 -0.0497049 147.734 0.0282951C147.433 0.106295 147.391 0.252545 147.38 0.42122C147.364 0.70397 147.33 0.98672 147.275 1.26557C147.224 1.42291 147.189 1.58491 147.17 1.74917C147.189 1.8223 147.229 1.8886 147.286 1.93832C147.346 2.0134 147.895 2.45605 148.007 2.62765C148.12 2.79827 147.923 2.72515 147.814 2.6452C147.567 2.47939 147.302 2.34047 147.026 2.23082C146.698 2.0959 146.349 2.02061 145.995 2.00852C145.679 2.00852 145.289 2.14795 145.289 2.39462H145.302ZM148.437 7.36322C148.437 7.40709 148.401 7.37589 148.378 7.36322C148.341 7.3268 148.296 7.30085 148.246 7.28814C148.136 7.26864 148.054 7.39345 147.92 7.2589C147.658 6.9742 147.333 6.78504 147.302 6.94299C147.271 7.06133 147.271 7.18541 147.302 7.30375C147.364 7.6138 147.436 7.90142 147.436 7.90142C147.436 7.90142 147.467 8.01842 147.622 7.94822C147.722 7.90239 147.827 7.87119 147.937 7.85462C147.973 7.85462 148.012 7.91702 148.065 7.95797C148.1 7.98931 148.143 8.01066 148.189 8.01976C148.235 8.02885 148.283 8.02536 148.328 8.00964C148.39 7.98429 148.448 7.91702 148.462 7.92482C148.614 7.99697 148.949 8.26119 148.855 7.98917C148.803 7.8757 148.777 7.75155 148.781 7.62662C148.786 7.5017 148.819 7.37945 148.879 7.26962C148.931 7.19162 148.971 7.10095 148.915 7.08535C148.825 7.09259 148.736 7.11364 148.653 7.14774C148.57 7.1771 148.497 7.22715 148.44 7.29302C148.429 7.31961 148.429 7.3493 148.44 7.37589L148.437 7.36322ZM149.133 10.5086C149.194 10.4963 149.25 10.4642 149.291 10.4173C149.331 10.3703 149.355 10.3112 149.359 10.2492C149.359 10.0425 149.034 10.1098 149.096 10.2492C149.134 10.3303 149.148 10.4199 149.138 10.5086H149.133ZM151.59 5.81882C151.59 5.84807 151.631 5.78567 151.655 5.70572C151.679 5.62577 151.707 5.53705 151.681 5.53997C151.655 5.5429 151.647 5.53997 151.615 5.60822C151.594 5.67657 151.585 5.74733 151.59 5.81882ZM147.698 5.57604C147.731 5.57604 147.731 5.51754 147.808 5.46782C147.884 5.41907 148 5.39957 147.95 5.38202C147.877 5.36645 147.801 5.37186 147.731 5.39762C147.656 5.44442 147.664 5.56824 147.698 5.57604ZM139.61 30.615C139.815 30.6462 139.754 30.6696 139.684 30.7613C139.613 30.851 139.393 31.0635 139.017 31.5247C138.755 31.863 137.605 33.3362 137.27 34.1133C137.137 34.3863 137.048 34.6788 137.007 34.9781V35.022C136.98 34.9982 136.95 34.9782 136.918 34.9625C136.879 34.9442 136.836 34.9364 136.793 34.94C136.751 34.9436 136.71 34.9584 136.674 34.983C136.564 35.0454 136.611 35.1127 136.763 35.141C136.915 35.1702 136.879 35.3116 136.996 35.2502C137.018 35.2422 137.036 35.2279 137.049 35.2092C137.061 35.1906 137.068 35.1684 137.068 35.1458C137.095 35.1848 137.118 35.2277 137.134 35.2726C137.146 35.3292 137.135 35.3884 137.103 35.437C137.072 35.4856 137.022 35.5198 136.965 35.5319H136.952C136.944 35.9463 137.005 36.3607 137.135 36.7546C137.24 37.0812 137.401 37.3883 137.611 37.6604C137.861 37.8008 138.095 37.9665 138.309 38.1547C138.37 38.2217 138.408 38.3058 138.419 38.3953C138.43 38.4849 138.412 38.5756 138.369 38.6549C138.369 38.6549 138.498 38.6987 138.406 38.8928C138.377 38.9552 138.256 38.9864 137.952 38.999C137.453 39.011 136.957 38.9228 136.493 38.7397C135.934 38.5174 135.734 38.3594 135.499 37.8329C135.263 37.3084 135.063 36.7829 135.063 36.7829H134.708C134.606 36.6185 134.518 36.4452 134.446 36.2651C134.345 36.0068 134.345 35.7201 134.446 35.4617L134.475 35.3974C134.459 35.1971 134.499 34.9961 134.591 34.8173C134.624 34.9577 134.769 35.0318 134.853 34.9362C134.939 34.826 135.037 34.7266 135.147 34.6388C135.307 34.5374 135.281 34.476 135.218 34.4214C135.175 34.3955 135.128 34.3782 135.079 34.3707C135.03 34.3631 134.98 34.3655 134.932 34.3775C134.913 34.3775 134.932 34.3775 134.932 34.3619L135.071 34.2352C135.139 34.1464 135.193 34.0478 135.231 33.9427C135.319 33.697 135.39 33.4464 135.441 33.1919C135.551 32.6966 135.842 31.7099 135.997 31.2887C136.195 30.7788 136.459 30.2972 136.784 29.8565C136.845 29.7785 136.826 29.8828 136.865 29.9501C136.892 29.9961 136.928 30.0359 136.971 30.0671C136.996 30.0866 137.16 30.188 137.131 30.2455C136.918 30.541 136.731 30.8534 136.57 31.1795C136.433 31.4623 135.872 32.7668 135.781 33.539C135.692 34.3093 135.847 33.8754 135.923 33.5927C136 33.3099 136.325 32.4821 136.512 32.0395C136.698 31.5968 137.262 30.6569 137.351 30.4863C137.44 30.3147 137.477 30.3752 137.563 30.4112C137.798 30.499 138.042 30.5653 138.291 30.6053C138.726 30.6472 139.166 30.6472 139.603 30.6053L139.61 30.615ZM135.733 37.2304C135.864 37.0802 135.816 36.8521 135.627 36.6113C135.438 36.3714 135.263 36.2827 135.249 36.0945C135.236 35.9054 135.249 35.6801 135.11 35.7991C135.11 35.7991 135.058 35.8225 135.06 36.0818C135.063 36.3402 135.322 36.5986 135.402 36.7829C135.48 36.9662 135.601 37.3835 135.733 37.2362V37.2304ZM136.855 37.9655C136.833 37.925 136.802 37.8899 136.764 37.8631C136.726 37.8362 136.683 37.8183 136.637 37.8105C136.496 37.8105 136.315 37.9139 136.456 38.0231C136.598 38.1313 136.813 38.1469 136.947 38.2298C137.025 38.28 137.118 38.303 137.21 38.2951C137.231 38.2997 137.254 38.2997 137.275 38.2951C137.296 38.2951 137.291 38.2717 137.275 38.261C137.206 38.2433 137.139 38.2171 137.076 38.183C136.994 38.1322 136.926 38.0618 136.879 37.9782L136.855 37.9655ZM136.412 37.7023C136.637 37.7023 136.795 37.5882 136.593 37.5443C136.526 37.529 136.456 37.5282 136.388 37.542C136.32 37.5558 136.256 37.5838 136.2 37.6243C136.058 37.754 136.089 37.8212 136.147 37.8183C136.275 37.8183 136.265 37.7013 136.409 37.7013L136.412 37.7023ZM151.754 16.5233C151.922 16.5126 152.085 16.4756 152.24 16.4141C152.405 16.3127 152.476 16.2971 152.581 16.2279C152.621 16.2043 152.654 16.1719 152.678 16.1333C152.703 16.0947 152.718 16.051 152.722 16.0056C152.722 15.9374 152.757 15.9149 152.861 15.873C152.899 15.859 152.934 15.8365 152.961 15.8073C152.989 15.778 153.01 15.7428 153.022 15.7043C153.053 15.6263 153.072 15.562 153.072 15.562C153.072 15.562 153.103 15.5006 153.232 15.482C153.361 15.4645 153.526 15.404 153.518 15.2597C153.511 15.1705 153.49 15.083 153.455 15.0004C153.424 15.0375 153.381 15.0638 153.334 15.0755C153.287 15.0872 153.237 15.0838 153.192 15.0657C153.001 14.9955 152.878 14.9195 152.791 14.8922C152.705 14.8629 152.56 14.8483 152.613 14.9565C152.665 15.0657 152.686 15.1145 152.613 15.1895C152.58 15.2151 152.545 15.2379 152.508 15.2578C152.374 15.3143 152.337 15.4099 152.35 15.4567C152.361 15.4895 152.362 15.5247 152.353 15.5581C152.344 15.5914 152.326 15.6215 152.3 15.6449C152.23 15.7024 152.148 15.7716 152.154 15.8525C152.159 15.9325 152.132 15.9744 152.043 16.0358C151.954 16.0982 151.849 16.109 151.518 16.1372C151.339 16.164 151.157 16.1368 150.994 16.0592C150.972 16.0491 150.949 16.044 150.925 16.0443C150.902 16.0446 150.878 16.0504 150.857 16.0612C150.836 16.0717 150.818 16.0871 150.805 16.106C150.791 16.1255 150.782 16.1479 150.778 16.1714C150.778 16.2562 150.778 16.2825 150.87 16.2952C150.962 16.3079 150.97 16.3751 150.854 16.3985C150.739 16.4219 150.97 16.5545 151.083 16.5799H151.128C150.603 17.6748 144.26 30.0437 144.216 30.1548C144.212 30.1624 144.21 30.1706 144.21 30.179C144.21 30.1874 144.211 30.1957 144.214 30.2036C144.219 30.2182 144.229 30.2318 144.244 30.2396C144.258 30.2523 144.275 30.2591 144.293 30.2591C144.311 30.2588 144.329 30.2519 144.342 30.2396C144.402 30.1548 151.754 16.5175 151.754 16.5175V16.5233ZM152.196 14.5109C152.169 14.6016 152.408 14.4076 152.618 14.4076C152.696 14.4132 152.773 14.4345 152.844 14.47L152.954 14.2652C153.108 14.2602 153.254 14.1947 153.36 14.0829C153.412 14.0282 153.453 13.9636 153.48 13.8929C153.508 13.8221 153.52 13.7467 153.518 13.6711C153.515 13.5954 153.497 13.5211 153.466 13.4523C153.434 13.3836 153.388 13.3218 153.332 13.2707C153.219 13.1663 153.069 13.1106 152.914 13.1157C152.789 13.1163 152.667 13.1562 152.566 13.2298C152.566 13.2298 152.547 13.2473 152.589 13.2298C152.641 13.21 152.698 13.21 152.749 13.2298C152.804 13.2883 152.683 13.3078 152.678 13.4345C152.681 13.4566 152.676 13.479 152.665 13.4979C152.653 13.5172 152.636 13.532 152.615 13.5398C152.592 13.5466 152.569 13.5478 152.546 13.5434C152.523 13.539 152.502 13.529 152.484 13.5145C152.466 13.5005 152.453 13.4828 152.443 13.4628C152.434 13.4424 152.429 13.4201 152.429 13.3975C152.429 13.3721 152.429 13.3799 152.408 13.3975C152.352 13.4887 152.322 13.5938 152.322 13.701C152.323 13.8081 152.353 13.9131 152.41 14.0039C152.327 14.1872 152.206 14.4622 152.188 14.5207L152.196 14.5109ZM157.918 35.3252C157.955 35.3252 158.115 35.4032 158.091 35.5115C157.849 36.1628 157.407 36.7212 156.827 37.1066C156.302 37.3913 155.515 37.4839 155.11 37.6233L154.872 37.7169L154.954 38.1137C154.795 38.2461 154.618 38.3551 154.429 38.4374C154.239 38.5349 154.039 38.611 153.833 38.6675L153.489 38.3048C153.259 38.1075 153.063 37.8739 152.909 37.6136C152.869 37.5411 152.835 37.4646 152.81 37.3854C152.788 37.3387 152.77 37.2904 152.755 37.2411C152.675 37.0159 152.665 36.8969 152.639 36.8316C152.613 36.7673 152.492 36.6951 152.45 36.5732C152.428 36.5149 152.428 36.4503 152.45 36.3919C152.45 36.3558 152.484 36.3217 152.5 36.2846C152.589 36.0838 152.424 36.076 152.377 36.0653C152.343 36.0522 152.312 36.0323 152.287 36.0068C152.255 35.9614 152.233 35.9104 152.222 35.8565C152.21 35.8026 152.209 35.747 152.219 35.6928C152.169 35.6148 152.109 35.53 152.041 35.4335L151.923 35.2862C151.426 34.7336 150.973 34.1432 150.569 33.5205C150.218 33.0125 149.943 32.4569 149.752 31.8708C149.752 31.8708 149.947 31.7597 150.014 31.7265C150.083 31.6924 150.186 31.7265 150.261 31.8455C150.284 31.8825 150.301 31.9235 150.314 31.9644C150.315 31.98 150.315 31.9956 150.314 32.0112C150.374 32.2686 150.462 32.5192 150.576 32.759C150.709 33.1003 150.872 33.4269 151.064 33.7379C151.45 34.2771 151.883 34.7812 152.361 35.2443C152.571 35.4471 152.112 34.7968 151.746 34.2401C151.293 33.5298 150.93 32.7664 150.666 31.9673C150.666 31.9459 150.65 31.9254 150.645 31.9069C150.618 31.8356 150.585 31.7665 150.547 31.7002C150.525 31.6691 150.494 31.6455 150.458 31.6329C150.406 31.6066 150.358 31.5968 150.392 31.5627C150.427 31.5296 150.587 31.4594 150.831 31.278C151.151 31.0196 151.235 30.6335 151.411 30.2221C151.473 30.0758 151.543 29.9354 151.621 29.797C151.6 29.5386 151.657 29.1886 151.696 29.2802C151.696 29.3027 151.757 29.4655 151.778 29.5386V29.5825C151.802 29.6654 151.818 29.7297 151.818 29.7297C152.067 30.6833 152.369 31.6222 152.72 32.5445C153.033 33.4084 153.406 34.2488 153.839 35.06C153.895 35.141 153.958 35.216 154.027 35.2862C154.113 35.2872 154.198 35.3093 154.273 35.3506C154.305 35.3688 154.33 35.3974 154.344 35.4315C154.357 35.4652 154.358 35.5022 154.348 35.5368C154.469 35.606 154.601 35.6577 154.738 35.6899C155.415 35.8586 155.974 35.9492 156.433 35.8147L156.588 35.7601C156.62 35.7474 156.609 35.7601 156.588 35.7601C156.567 35.7601 156.501 35.8322 156.456 35.8742C156.349 35.9763 156.22 36.0526 156.079 36.0974C155.937 36.1422 155.788 36.1542 155.641 36.1325C155.622 36.1325 155.641 36.1325 155.641 36.1511C155.864 36.3558 156.399 36.1998 156.551 36.0857C156.703 35.9726 156.653 35.9853 156.848 36.0526C156.903 36.0731 156.934 36.0682 156.95 36.0526C157.008 36.0292 157.014 35.8147 157.05 35.646C157.076 35.5333 157.132 35.4296 157.212 35.3457C157.298 35.2999 157.395 35.2784 157.492 35.2835C157.589 35.2887 157.683 35.3203 157.763 35.375C157.78 35.3572 157.801 35.3434 157.823 35.3343C157.846 35.3252 157.87 35.3211 157.895 35.3223L157.918 35.3252ZM153.245 37.3552C153.297 37.3181 153.192 37.2821 153.195 36.9457C153.195 36.9457 153.237 36.7487 153.122 36.6863C153.006 36.6249 152.813 36.7097 152.83 36.8219C152.845 36.9389 152.874 37.0529 152.917 37.1631C153.017 37.3835 153.18 37.3971 153.245 37.3601V37.3552ZM155.082 37.3006C155.202 37.244 155.21 37.168 155.182 37.1758C155.028 37.2395 154.865 37.2773 154.699 37.2879C154.462 37.2879 154.067 37.3074 153.951 37.4225C153.836 37.5365 153.728 37.8729 153.998 37.7091C154.154 37.58 154.34 37.4913 154.539 37.4507C154.725 37.4166 154.906 37.3659 155.082 37.2977V37.3006ZM150.288 30.8773C150.718 30.6179 150.839 30.1002 150.965 29.7375C151.078 29.4021 151.25 29.0891 151.474 28.8132C151.513 28.7645 151.421 28.508 151.367 28.3891C151.361 28.3714 151.351 28.3553 151.337 28.3423C151.315 28.3384 151.292 28.3384 151.27 28.3423C151.232 28.3423 151.19 28.3423 151.172 28.3033C151.211 28.1629 151.24 28.0205 151.261 27.8762C151.279 27.6358 151.255 27.394 151.19 27.1616C151.17 27.0614 151.118 26.9706 151.04 26.9032C150.998 26.8661 151.04 26.9909 151.064 27.1879C151.075 27.4316 151.028 27.6754 150.925 27.8967C150.802 28.1405 150.663 28.3579 150.597 28.4954C150.531 28.6319 150.572 28.7537 150.686 28.7742C150.726 28.7742 150.76 28.7742 150.773 28.8649C150.792 28.9868 150.773 29.2432 150.311 29.7736C150.121 29.9713 149.914 30.1517 149.692 30.3128C149.703 30.3927 149.703 30.4737 149.692 30.5536C149.679 30.6618 149.642 30.7659 149.585 30.8588C149.562 30.8767 149.539 30.8924 149.513 30.9056C149.288 31.045 149.513 31.356 149.513 31.356C149.513 31.356 149.697 31.2624 150.3 30.8851L150.288 30.8773ZM144.738 24.3292C145.116 23.6291 145.571 22.972 146.094 22.3694C146.301 22.1506 146.524 21.9479 146.761 21.763C146.958 21.6206 146.69 21.6411 146.029 22.0818C145.72 22.29 145.453 22.5535 145.242 22.8589C144.721 23.6272 144.26 24.4347 143.864 25.274C143.657 25.7146 143.371 26.1138 143.019 26.4518C142.62 26.793 142.203 26.9207 141.97 27.1245C141.942 27.1468 141.915 27.1713 141.891 27.1976C141.862 27.2228 141.838 27.2524 141.82 27.2854C141.787 27.3449 141.771 27.4124 141.773 27.4804C141.795 27.6003 141.769 27.7239 141.7 27.8246C141.565 27.9379 141.407 28.0217 141.238 28.0703L141.174 28.0888L140.957 28.1453C140.773 28.1717 140.671 28.2545 140.822 28.3403C140.88 28.3713 140.942 28.3937 141.007 28.4066C141.146 28.4427 141.185 28.469 141.183 28.5314C141.18 28.5929 141.083 28.7586 140.723 28.8678C140.264 28.9804 139.792 29.0309 139.32 29.018C139.098 28.9958 138.875 28.9958 138.653 29.018C138.592 29.0492 138.614 29.1242 138.865 29.2022C139.001 29.2383 139.345 29.2978 139.503 29.3524C139.6 29.3855 139.573 29.4655 139.453 29.4869C139.088 29.5259 138.719 29.4986 138.364 29.4041C138.364 29.4041 138.238 29.3592 138.188 29.3358C138.038 29.263 137.91 29.1525 137.816 29.015C137.782 28.9536 137.768 28.8395 137.719 28.8083L137.457 29.173C137.457 29.173 137.419 29.2841 137.619 29.5308C137.647 29.4967 137.645 29.4372 137.671 29.3933C137.697 29.3495 137.787 29.2871 137.842 29.3641C137.86 29.4005 137.869 29.4406 137.869 29.4811C137.869 29.5216 137.86 29.5616 137.842 29.5981C137.819 29.6396 137.807 29.687 137.81 29.7346C138 29.8682 138.218 29.9569 138.448 29.9939C138.917 30.0885 139.402 30.0797 139.868 29.9686C139.912 29.9686 140.101 29.9218 140.115 29.9686C140.111 30.0363 140.093 30.1024 140.062 30.1626C140.023 30.2582 140.001 30.2864 139.978 30.3459C139.954 30.4054 139.999 30.4083 140.007 30.4005C140.079 30.3582 140.145 30.3049 140.201 30.2426C140.271 30.1782 140.49 29.9842 140.544 29.9237C140.736 29.7531 140.844 29.6654 140.807 29.5776C140.807 29.562 140.78 29.4655 140.775 29.4353C140.775 29.3085 140.838 29.1944 141.038 29.055C141.247 28.9461 141.445 28.8168 141.628 28.6689C141.822 28.4739 141.683 28.2594 141.848 28.0751C142.014 27.8918 142.295 27.8168 142.373 27.6764C142.52 27.4745 142.515 27.418 142.665 27.1791C142.939 26.8457 143.234 26.5288 143.549 26.2324C144.074 25.6474 144.258 25.1209 144.72 24.3311L144.738 24.3292ZM150.815 15.1817C150.705 15.2159 150.608 15.2831 150.645 15.3426C150.681 15.4011 150.792 15.3943 151.001 15.3007C151.212 15.2081 151.303 15.1223 151.206 15.1174C151.074 15.1292 150.944 15.1507 150.815 15.1817ZM140.508 20.5462C139.934 20.6476 139.742 20.6807 139.634 20.7041C138.666 21.5592 139.175 22.3558 139.487 22.5449C139.697 22.6775 139.471 22.4699 140.405 21.3203C140.763 20.9625 141.153 20.6388 141.573 20.3551C141.469 20.3551 141.007 20.4584 140.508 20.5462ZM152.904 14.4914C153.065 14.5665 153.221 14.6533 153.371 14.7498C153.404 14.7781 153.436 14.8083 153.466 14.8405C153.508 14.8337 153.547 14.8138 153.578 14.7835C153.609 14.7532 153.629 14.7142 153.636 14.6718C153.654 14.5841 153.567 14.5158 153.389 14.4905C153.211 14.4641 153.127 14.4281 153.03 14.4183C152.999 14.4138 152.968 14.4155 152.938 14.4234C152.909 14.4313 152.881 14.4451 152.857 14.4641L152.904 14.4875" fill="white"/>
</g>
<defs>
<clipPath id="clip0_304_324">
<rect width="280" height="39" fill="white"/>
</clipPath>
</defs>
</svg>
