<svg width="150" height="87" viewBox="0 0 150 87" fill="none" xmlns="http://www.w3.org/2000/svg">
<g clip-path="url(#clip0_304_326)">
<path d="M107.348 14.3095H100.997V26.7662C100.997 30.8265 105.336 34.2954 110.701 34.2954C116.065 34.2954 120.76 30.7871 120.76 26.7662V14.3095H114.409V25.5442C114.409 27.3969 112.831 28.8949 110.898 28.8949C108.925 28.8949 107.348 27.3969 107.348 25.5048V14.3095ZM6.5994 7.4504V33.3099H0.0117188V2.1287H11.8853C17.0529 2.1287 21.2738 6.30722 21.2738 11.3924C21.2738 15.7286 18.2363 19.3553 14.1338 20.3013L23.2856 33.3099H15.4356L8.84789 23.1002V15.6498H10.3863C12.8321 15.6498 14.8044 13.8364 14.8044 11.5895C14.8044 9.34256 12.9504 7.4504 10.5047 7.4504H6.5994ZM67.2298 33.3099V0.630737H60.9971V16.044C59.3403 14.4277 57.2496 13.5211 54.8433 13.5211C49.7152 13.5211 45.5338 18.0544 45.5338 23.6915C45.5338 29.2891 49.7152 33.8618 54.8433 33.8618C57.2891 33.8618 59.577 32.9157 60.9971 31.1813V33.3099H67.2298ZM56.6185 28.5401C54.0939 28.5401 52.0426 26.2932 52.0426 23.5338C52.0426 20.7744 54.0939 18.5274 56.6185 18.5274C59.1431 18.5274 61.1944 20.7744 61.1944 23.5338C61.1549 26.2932 59.1036 28.5401 56.6185 28.5401ZM93.4227 16.3593C95.119 14.7825 96.184 12.6538 96.184 10.3281C96.184 8.19938 95.3556 6.2678 93.9355 4.73042C92.4365 3.1142 89.833 2.1287 86.2828 2.1287H75.6715V33.3099H89.3991C94.6456 33.2311 98.9059 29.2497 98.9059 24.3616C98.8664 20.8138 97.6041 18.2909 93.4227 16.3593ZM88.1368 27.9094H82.1803V7.72634H86.3617C88.1762 7.72634 89.7147 9.10604 89.7147 10.9588C89.7147 12.8115 88.1762 14.3095 86.3617 14.3095H84.1526V19.9466H88.2157C90.4247 19.9466 92.0815 21.7599 92.0815 23.9674C92.0026 26.1749 90.5431 27.7911 88.1368 27.9094Z" fill="#E21B4D"/>
<path d="M28.8076 21.3657C28.8076 19.2764 30.5038 17.5813 32.5945 17.5813C34.6853 17.5813 36.3815 19.2764 36.3815 21.3657H28.8076ZM42.5352 24.9135C42.5747 24.4799 42.6141 24.0462 42.6141 23.6126C42.693 16.8718 38.2749 13.2057 32.5945 13.2057C26.9142 13.2057 22.2988 17.8573 22.2988 23.6126C22.2988 29.3679 26.9142 34.0195 32.5945 34.0195C36.9337 34.0195 40.3262 32.0485 42.0619 28.9737L37.0126 26.648C36.3815 28.0277 34.8825 29.0132 33.1074 29.0132C30.78 29.0132 28.8471 27.2393 28.8471 24.9135H42.5352ZM123.678 0.630737H129.911V33.3099H123.678V0.630737ZM134.289 0.630737H140.522V33.3099H134.289V0.630737Z" fill="#E21B4D"/>
<path d="M55.9473 54.9121C55.9473 46.4762 62.7716 39.6566 71.2133 39.6566C79.655 39.6566 86.4794 46.4762 86.4794 54.9121C86.4794 63.348 79.655 70.1676 71.2133 70.1676C62.7716 70.1676 55.9473 63.3086 55.9473 54.9121Z" fill="#FFD300"/>
<path fill-rule="evenodd" clip-rule="evenodd" d="M58.9446 45.8455C59.1813 45.9637 59.418 46.082 59.6941 46.2397C60.8381 47.0281 61.5876 47.6982 63.3232 49.1568C63.8361 49.6692 64.4278 50.497 64.8617 51.0095C65.8084 52.1921 66.479 53.0199 66.5974 54.0054C66.8735 55.9764 67.1496 57.0802 67.8991 59.0906C67.978 59.2877 68.2936 59.5637 68.4908 59.8002C68.9642 60.3915 69.1614 61.3376 70.0293 61.85C70.5026 62.126 70.5815 62.1654 70.7393 62.2836C70.976 62.4807 70.5815 63.1903 69.3587 63.0326C69.9898 63.348 69.9109 64.0575 69.0036 64.097C67.2285 64.1758 66.124 63.1509 65.8873 62.8749C65.769 62.7567 65.414 63.2297 64.7828 63.4662C64.1516 63.7816 63.2838 63.4662 62.6132 63.5845C61.982 63.7028 61.1537 64.097 60.4831 64.1364C59.2996 64.1758 59.1418 63.348 59.1418 62.6384V62.3231C59.0235 62.7567 58.5896 63.5057 58.5896 63.5057C58.4318 63.8604 58.1951 64.2941 57.7612 64.4517L56.4989 64.6094C55.5127 65.043 54.5265 65.3584 53.5009 65.7132C52.9092 65.8314 52.2386 65.7132 51.8047 65.3584C51.4496 65.0825 51.2524 64.7277 51.0552 64.3729C50.8579 64.2941 50.5818 64.3729 50.3451 64.2941C50.1479 64.2546 50.0295 64.097 49.9112 63.9787L49.0434 62.5202C48.9645 62.3231 48.9645 62.0471 49.0434 61.85C49.2011 61.5347 49.5562 61.377 49.9112 61.377C50.5424 61.3376 51.2524 61.1405 51.8836 61.377C52.1597 61.0616 52.5936 61.101 52.9881 61.0222C52.8303 60.7857 52.5936 60.6674 52.3964 60.4703C51.2524 60.7463 49.9901 60.5492 48.8856 60.3521C47.8599 60.1155 46.9921 60.7068 45.9665 60.5492L45.6509 61.2193C45.1775 61.7318 45.1381 62.599 44.428 62.9538C43.9152 63.072 43.5207 63.4268 43.0868 63.6633C42.2979 64.097 41.2328 63.8999 40.365 63.7422C40.0099 63.7028 39.7733 63.7422 39.4577 63.8604C39.1816 64.0575 38.866 64.3729 38.5504 64.6094C38.0376 64.8065 37.6037 65.2401 37.0514 65.2796C36.7358 65.2796 36.4202 65.0825 36.1047 65.1613C35.7102 65.5949 35.513 66.3045 34.8818 66.5016C34.2507 66.6987 33.4617 66.541 32.8306 66.3833C32.6333 66.4622 32.515 66.6198 32.2783 66.5804C31.8444 66.4622 31.4105 66.3439 31.016 66.1074C30.8582 65.9497 30.8187 65.7526 30.7793 65.5949C30.7793 65.319 31.016 65.0825 31.1343 64.8459C31.1738 64.57 31.1738 64.1758 31.2921 63.8999C31.4893 63.4662 31.9233 63.1903 32.3572 62.9932C32.3966 62.6778 32.5939 62.4019 32.87 62.2442C33.3828 61.9683 33.9351 61.3376 34.6057 61.6923L35.3157 62.2836C35.9469 62.0077 35.7891 61.377 36.1047 60.8645C36.2625 60.5097 36.4597 60.1155 36.8542 60.1155C37.1303 60.0761 37.4459 60.155 37.722 60.1155C38.1165 59.9973 38.5504 59.8396 38.8265 59.5242L38.7871 59.2877C38.3926 58.5387 38.2743 57.6321 38.2348 56.7254C37.5248 56.8043 36.7753 56.9225 36.0258 56.7648C34.9213 56.6071 33.8562 55.7399 33.4223 54.6362C32.9489 53.5718 33.1461 52.0738 33.8956 51.1672C34.4873 50.4576 35.1579 49.8269 35.868 49.275C35.6313 49.1962 35.3552 49.2356 35.1185 49.1568C34.0929 48.9991 33.0672 48.0924 32.8306 47.0675C32.6728 46.3974 32.8306 45.7666 33.1461 45.2148C33.2645 45.0965 33.3828 44.9782 33.58 45.0571C34.0929 45.2542 34.2507 45.5301 34.724 45.7666L35.0001 45.9243C36.3019 46.3579 38.0376 46.3579 38.5504 47.9742C38.866 49.2356 38.077 50.1817 37.1697 50.8912C36.4597 51.4037 35.7496 52.0344 35.3946 52.7834C35.2368 53.3353 35.3157 53.8872 35.7891 54.2814C36.2625 54.7544 37.0909 54.7544 37.6826 54.5179C38.7871 54.0448 39.8127 53.3353 40.7989 52.5863C41.7456 51.8767 42.8896 51.6008 44.1125 51.5614C44.6647 51.4431 45.1381 51.2066 45.572 50.8518C46.3215 50.1423 47.1104 49.551 48.0572 49.3144C48.4911 49.2356 48.925 49.1962 49.3589 49.1568C49.714 48.9991 49.9506 48.5655 50.2268 48.3684C51.5285 47.2252 53.2642 47.2646 54.6449 46.3579C55.4338 45.7666 56.3016 45.3724 57.3273 45.4119C57.8006 45.4513 58.2346 45.5301 58.629 45.6878L58.9446 45.8455ZM60.2464 59.2483C59.3785 59.2877 58.8263 59.4848 58.2346 59.5637C58.274 60.1155 58.5896 60.5886 59.0235 61.1799C59.2602 60.2732 60.0097 59.9184 60.2464 59.2483ZM82.4551 59.4454C82.8496 60.0367 83.0863 60.628 83.4413 61.2587C83.7964 60.5886 84.1119 59.9579 84.4275 59.5637C84.3881 59.5242 83.3624 59.6425 82.4551 59.4454ZM83.2835 62.3625C83.2441 62.4807 83.1652 62.5202 83.0074 62.5202C83.1257 63.072 82.7313 64.097 81.7451 64.1364C81.0745 64.1758 79.97 63.5057 79.3388 63.4662C78.6682 63.4268 77.4454 63.9393 76.7353 62.8749C75.7886 64.0181 74.684 64.3335 73.7373 64.2941C73.1851 64.2941 72.5933 63.9787 73.4217 63.2691C71.6072 63.8604 71.6072 62.6384 71.9227 62.4019C72.12 62.2442 72.3567 62.126 73.0273 61.4558C75.5519 58.8147 74.6052 54.242 77.3665 51.2066C78.4315 50.024 79.2994 49.3539 81.469 47.8165C82.2185 47.304 82.968 46.555 83.678 46.0426L83.7175 46.1214V46.082C84.1514 45.7666 84.5459 45.4513 85.0192 45.333C86.0054 45.2148 86.9127 45.5301 87.6622 46.0426C88.0567 46.3185 88.3722 46.6339 88.6878 47.0281C88.9245 47.2646 89.2795 47.2646 89.5951 47.3829C90.5024 47.5405 91.2913 47.8953 92.0408 48.3684C92.5536 48.6837 92.9876 49.2356 93.6187 49.3144C94.3682 49.4327 95.0388 49.6692 95.7094 50.0634C96.4984 50.5759 97.2084 51.2066 98.1551 51.3643C100.049 51.5614 101.626 52.6257 103.125 53.6901C103.993 54.2025 105.019 54.7938 106.084 54.4391C106.4 54.3208 106.636 54.0449 106.715 53.7689C106.794 53.0594 106.36 52.5075 105.926 51.995C105.019 50.9307 103.441 50.024 103.638 48.4866C103.914 47.3434 105.177 46.6733 106.163 46.3579C106.715 46.1608 107.386 46.2397 107.859 45.7666C108.096 45.609 108.214 45.0571 108.609 45.2542C108.924 45.4513 108.964 45.8455 109.003 46.2003C109.161 47.304 108.924 48.4078 107.899 49.0385C107.425 49.3539 106.912 49.4721 106.36 49.5904C107.189 50.2605 108.017 51.0883 108.49 52.0344C108.766 52.5863 108.924 53.0594 108.964 53.6901C108.924 54.8727 108.214 55.8976 107.189 56.4889C106.597 56.8043 105.926 56.9225 105.216 56.9225C104.94 56.9225 104.703 56.8437 104.467 56.8437C104.585 57.3956 104.585 58.1445 104.467 58.7753C104.427 59.0906 104.23 59.4454 104.23 59.8396C104.388 60.0367 104.624 60.0367 104.822 60.0367C105.335 60.0367 105.966 59.9973 106.242 60.5492C106.478 61.0616 106.597 61.6529 106.794 62.1654C106.873 62.2442 106.912 62.4413 107.031 62.4019C107.386 62.0865 107.741 61.6529 108.254 61.7712C108.727 62.0865 109.2 62.4413 109.674 62.7961C109.792 62.9144 109.832 63.072 109.871 63.2691C110.265 63.4268 110.778 63.7028 110.897 64.1758C110.975 64.4912 110.936 64.8065 111.015 65.0825C111.133 65.3978 111.449 65.792 111.212 66.1862L111.054 66.3045L109.555 66.7775C109.437 66.7775 109.319 66.6987 109.2 66.5804C108.411 66.541 107.465 66.7775 106.834 66.2256C106.557 65.9891 106.36 65.7132 106.163 65.3978C105.69 65.6343 105.019 65.792 104.546 65.4767C103.559 64.7277 102.573 63.9787 101.232 64.0181C100.64 64.1364 99.9303 64.2941 99.3386 64.0575C98.7863 63.6633 98.1551 63.4662 97.7212 62.8749C97.0901 62.2048 97.0901 61.4164 96.8534 60.5886C95.9855 60.7857 95.0388 60.6674 94.171 60.628C93.4609 60.5886 92.7903 60.7068 92.1197 60.8645C91.2913 61.0222 90.384 61.101 89.5162 61.0616L89.0823 61.377C89.2795 61.4164 89.4768 61.4164 89.6345 61.5741L89.7923 61.7318C90.5024 61.8106 91.3308 61.6923 92.0014 61.85C92.1592 61.8894 92.317 62.0471 92.3958 62.2048C92.4747 62.4019 92.4747 62.6384 92.3564 62.7961C92.0014 63.2691 91.8041 63.821 91.3308 64.2152C91.2124 64.3729 90.8574 64.1758 90.818 64.4517C90.6602 65.1613 89.9896 65.7526 89.319 65.9103C89.0428 65.9497 88.7273 65.9103 88.4906 65.8314C87.6622 65.5555 86.8338 65.319 86.0054 65.0825C85.7293 65.0036 85.4926 64.7277 85.2559 64.57C84.9009 64.57 84.3881 64.6883 84.1514 64.3729C84.033 64.2941 83.9147 64.0181 83.8753 63.8999C83.5991 63.5451 83.4019 62.9144 83.2835 62.3625Z" fill="#FFD300"/>
<path fill-rule="evenodd" clip-rule="evenodd" d="M58.5513 50.8124C58.788 51.4037 58.788 52.1921 58.6302 52.8228C58.5908 52.8623 58.5513 52.8623 58.5119 52.8228C58.3935 52.271 58.2752 51.7191 58.0779 51.1672C57.9596 50.8518 57.5651 50.5759 57.7229 50.2211C57.8018 50.1423 57.9596 50.1423 58.0779 50.1817C58.2752 50.3788 58.3935 50.5759 58.5513 50.8124ZM64.8629 56.3312C65.2968 56.8437 65.6124 57.3956 65.4546 58.0657C65.3757 58.184 65.4151 58.4205 65.2179 58.4599C65.139 58.4993 65.0601 58.4205 65.0601 58.3416C65.0207 57.9869 65.0207 57.5927 64.8234 57.3167C64.5867 57.0802 64.3106 56.6072 63.9161 56.6072C63.64 56.686 63.4428 57.0014 63.285 57.1985C63.285 57.2379 63.2455 57.2379 63.2061 57.1985C63.0483 56.8043 63.3639 56.4889 63.4822 56.1735C63.7189 55.937 63.6795 55.2669 64.1923 55.464C64.5473 55.7005 64.6262 56.0947 64.8629 56.3312ZM64.0345 61.0222C64.0739 61.2587 64.0739 61.6135 63.8372 61.7712C63.6006 61.85 63.285 61.8894 63.0089 61.85C62.93 61.8106 62.8511 61.7712 62.8905 61.6923C63.0088 61.3376 63.3639 60.9434 63.7584 60.8645C63.8372 60.8645 63.995 60.8645 64.0345 61.0222ZM35.238 46.6339C36.1847 46.8704 37.2104 46.8704 37.9204 47.6194C38.3149 48.0924 38.3543 48.9203 38.0388 49.3933C37.4865 50.3394 36.382 50.8124 35.7114 51.6402C35.0408 52.1921 34.8041 53.0594 35.0013 53.9266C35.238 54.6756 35.9875 55.188 36.737 55.2275C37.9204 55.2669 38.7883 54.6756 39.735 54.1237C40.6817 53.4536 41.5496 52.5863 42.6146 52.3104C43.3247 52.0739 44.1136 52.1921 44.8237 51.9162C45.5732 51.7585 46.1649 51.1278 46.7566 50.5759C47.4272 50.024 48.2161 49.7087 49.084 49.7481C49.8729 49.8663 50.3068 49.1568 50.8591 48.6837C51.7664 47.8559 52.9498 47.7771 54.0149 47.304C54.7644 47.0675 55.3561 46.5156 56.0661 46.1609C56.7367 45.8849 57.644 45.8061 58.3146 46.082C58.7486 46.2791 59.2219 46.4762 59.6164 46.7916L62.8116 49.4721C62.8511 49.5904 62.9694 49.6692 63.0483 49.7087C63.9556 50.8124 64.9023 51.8768 65.6518 53.0988C65.8885 53.5324 66.0068 53.966 66.1252 54.4391C66.283 56.2524 66.7563 57.8292 67.348 59.406C67.5058 59.6425 67.8214 59.8396 67.9792 60.0761C68.492 60.7857 68.8076 61.6924 69.636 62.1654L70.1093 62.4019C70.1488 62.4413 70.1488 62.5202 70.1093 62.5596L70.0305 62.6384C69.0443 62.7961 68.2948 62.2048 67.782 61.4952C67.4664 60.8645 67.0325 60.1944 66.3224 59.9184C66.283 59.9184 66.2435 59.9579 66.2435 59.9579C66.3224 60.1944 66.5591 60.3521 66.638 60.5492C66.9141 60.9828 67.1508 61.4558 67.2692 61.9289C67.4269 62.4413 67.9792 62.7961 68.4131 63.072L69.0443 63.3874C69.1232 63.4268 69.1626 63.5451 69.0837 63.6239L69.0048 63.6633C67.9398 63.7028 66.993 63.348 66.2435 62.5596C66.0857 62.3625 65.849 62.2048 65.5729 62.2048C65.0996 62.6384 64.6262 63.0326 63.995 63.072C63.3244 62.9538 62.6144 62.9538 62.0227 63.1903C61.4704 63.3874 60.9181 63.6239 60.3264 63.6239C60.0503 63.6239 59.7347 63.5057 59.6164 63.2297C59.6164 62.875 59.3797 62.4807 59.5769 62.126L59.9714 61.5347C59.9714 61.4558 59.932 61.377 59.8531 61.377C59.6953 61.3376 59.4192 61.6135 59.3403 61.3376C59.3797 60.7463 59.9714 60.3521 60.3659 59.9579C60.4448 59.4848 60.642 59.0512 60.997 58.657C60.997 58.6176 60.9576 58.5387 60.8787 58.5387C60.3659 58.6176 59.8531 58.7358 59.3008 58.7358C58.8669 58.9724 58.3146 59.13 57.8018 58.9724C57.6835 58.8935 57.7229 58.7753 57.7624 58.6964C58.3146 57.9474 58.5119 57.0014 58.3541 56.0947C58.3146 56.0553 58.3146 55.9764 58.2357 55.9764C58.1568 55.9764 58.1568 56.0553 58.1174 56.0947C57.9991 56.9619 57.7229 57.6321 57.2496 58.3811C56.8945 58.7358 56.3423 58.7358 55.8689 58.8541C55.7506 58.8935 55.6322 59.0118 55.6322 59.13C55.6322 59.4454 55.8295 59.6425 55.9478 59.9184L56.9734 61.8106C57.0129 62.3231 56.7762 62.8355 56.6579 63.3086C56.6973 63.3874 56.7762 63.348 56.8551 63.3086C57.2101 62.9932 57.4468 62.5596 57.6046 62.0865C57.644 61.8894 57.5651 61.6529 57.4862 61.4952L56.4212 59.3666C56.5001 59.2483 56.6578 59.2483 56.7762 59.2089C57.0129 59.2089 57.2496 59.3271 57.4862 59.406C57.7229 60.0367 57.9991 60.7068 58.433 61.2587C58.5119 61.6135 58.6302 62.0866 58.3935 62.3625C58.1568 62.8355 57.9202 63.2297 57.6046 63.6633C57.3285 63.9393 56.934 63.8999 56.5395 63.9393H56.4212C55.4744 64.4518 54.4883 64.7671 53.4626 65.0825C53.0287 65.2796 52.5159 65.1219 52.1609 64.8459C51.8058 64.57 51.6481 64.1758 51.4114 63.821C51.1352 63.4663 50.7013 63.7816 50.3857 63.5845C50.1096 63.1509 49.8335 62.7173 49.5968 62.2442C49.5968 62.126 49.5968 62.0077 49.7151 61.9289C50.0702 61.8106 50.4646 61.8106 50.8591 61.7712C51.2141 61.7318 51.6086 61.8106 51.8453 62.0471C52.3187 62.599 52.5159 63.348 53.2259 63.7028C53.7782 63.7422 54.2516 63.5845 54.7249 63.348C55.0011 63.1903 55.3166 62.9538 55.3166 62.599C55.2772 61.8894 54.8038 61.3376 54.2121 60.9434C53.6204 60.628 52.9893 60.1944 52.5553 59.6425C52.3187 59.3271 52.2792 58.9724 52.1609 58.657C52.1214 58.5782 51.9636 58.5782 51.9242 58.6176C51.6875 58.8147 51.8847 59.1695 51.8847 59.406C51.9242 59.5637 52.0031 59.7608 51.9242 59.879C51.5692 60.155 51.0958 59.9973 50.6619 60.0367C49.794 59.9973 48.9656 59.6425 48.0584 59.7213C47.1905 59.7608 46.0071 60.3521 45.3759 59.4848C45.0604 58.657 45.1393 57.6715 45.2971 56.8437C45.2971 56.7648 45.2182 56.686 45.1393 56.686C45.0604 56.6466 44.9815 56.686 44.942 56.7648C44.7053 57.5927 44.6659 58.4993 44.4687 59.3666C44.1531 60.1155 43.6008 60.9039 42.8513 61.2981C42.1807 61.6529 41.3918 61.7712 40.5634 61.85C39.0644 61.8894 37.6837 62.1654 36.737 63.4662C36.6581 63.5845 36.5398 63.7028 36.5792 63.8604C36.6187 63.8999 36.737 63.9393 36.7765 63.8999C37.8021 62.7567 39.1038 62.2837 40.6028 62.3625C42.0229 62.3625 43.443 62.126 44.3503 60.9039C44.587 60.628 44.7448 60.3521 44.942 60.0367C45.0998 60.0367 45.2182 60.2338 45.3365 60.3126C45.3759 60.7463 45.0209 61.0222 44.8631 61.377C44.6659 61.7712 44.4687 62.2442 44.0742 62.4807C43.6008 62.599 43.2064 62.9144 42.7724 63.1509C42.3385 63.348 41.7862 63.4268 41.2734 63.3086C40.6423 63.1903 39.7744 63.0326 39.1433 63.3086C38.8277 63.5057 38.5516 63.8604 38.236 64.0575C37.8021 64.2546 37.4076 64.6094 36.8948 64.57C36.5398 64.4912 36.1059 64.2546 35.7903 64.57C35.3958 64.9248 35.3169 65.5555 34.8041 65.792C34.2124 66.1074 33.5812 65.792 32.9895 65.7526C33.0684 65.1613 33.1473 64.6094 33.5418 64.1758C33.7785 64.1364 33.9757 64.097 34.1729 63.9393C34.4096 63.7422 34.5674 63.4662 34.7252 63.1903C35.238 62.8749 35.8297 62.6384 36.1453 62.0865C36.382 61.5741 36.382 61.101 36.7765 60.628L36.9737 60.5492L38.0388 60.4703C38.4727 60.2732 38.8672 60.0761 39.2616 59.7608C39.38 59.6425 39.4194 59.4454 39.38 59.2483C39.1827 58.7358 39.0249 58.3811 38.9066 57.8292C38.7883 57.2773 38.8672 56.7254 38.7883 56.0947C38.7488 56.0553 38.7094 55.937 38.6305 55.937C37.9204 56.0947 37.2498 56.2918 36.4609 56.1735C35.3958 56.0553 34.2913 55.3457 33.8968 54.2814C33.5418 53.3747 33.6207 52.0739 34.2913 51.3249C34.9224 50.5365 35.7114 49.9452 36.5003 49.275C36.6187 49.1962 36.6187 49.0385 36.6581 48.9203C36.6581 48.7626 36.5003 48.6443 36.382 48.5655C35.9086 48.4472 35.3564 48.6049 34.883 48.4078C34.0546 48.1319 33.4234 47.3435 33.3051 46.4762C33.2657 46.082 33.3445 45.7667 33.5418 45.4513C34.1729 46.0032 34.6463 46.4762 35.238 46.6339ZM32.8712 64.2546V64.3729C32.6739 64.8459 32.5556 65.3978 32.3978 65.9497C32.0428 65.9103 31.7272 65.792 31.4511 65.6738C31.3722 65.5949 31.4511 65.5161 31.4511 65.4372C31.8061 65.1219 31.6878 64.7277 31.7667 64.2941C31.8061 64.0576 32.0428 63.8605 32.2795 63.7422C32.5556 63.7816 32.7134 64.0575 32.8712 64.2546ZM34.6069 62.599C34.4096 62.9932 34.1335 63.4662 33.6996 63.7028C33.5418 63.7422 33.3445 63.7422 33.1868 63.6633C33.1079 63.5845 32.9501 63.5057 32.9501 63.348C32.9895 63.1903 32.9106 62.9932 33.0684 62.9144C33.384 62.7173 33.6996 62.5202 34.0151 62.2442C34.094 62.2048 34.2518 62.1654 34.2913 62.2442C34.4491 62.3625 34.5674 62.4413 34.6069 62.599ZM54.3699 62.4413C54.4094 62.599 54.646 62.7961 54.4883 62.9538C54.1727 63.1903 53.8177 63.348 53.3837 63.3086C53.0682 63.072 53.1076 62.6384 52.8315 62.3231C52.7526 62.0865 52.3976 62.0866 52.4764 61.85L52.5948 61.7712C53.0287 61.7712 53.4626 61.7712 53.8965 61.6923C54.3305 61.6529 54.2121 62.1654 54.3699 62.4413ZM79.3005 56.0159C79.5372 56.3312 79.7345 56.6466 79.8923 57.0408C79.9317 57.1196 79.8923 57.1985 79.8528 57.2773C79.8134 57.3561 79.7345 57.435 79.6161 57.3561C79.34 57.2773 79.3794 56.8437 79.0244 56.8831C78.7877 56.8831 78.6299 57.0802 78.4327 57.1985C78.0777 57.5138 77.6043 57.8292 77.5254 58.3022C77.4465 58.4599 77.486 58.7358 77.3282 58.8147C77.2493 58.8541 77.131 58.7753 77.131 58.6964C77.0915 58.0657 77.2887 57.4744 77.7227 57.0408C78.1566 56.686 78.4722 56.1735 78.8272 55.7399C79.0639 55.7005 79.2217 55.8582 79.3005 56.0159ZM79.4583 61.2587C79.5372 61.4164 79.695 61.6135 79.5767 61.8106C79.4189 61.9289 79.1428 61.85 78.9455 61.85C78.7088 61.7318 78.6299 61.4164 78.6299 61.1405C78.6299 61.0616 78.6299 61.0222 78.7088 60.9434C78.985 60.9434 79.2611 61.0222 79.4583 61.2587ZM85.3754 49.1962C85.4938 49.3539 85.3754 49.5116 85.2965 49.6298C84.7443 50.1423 84.0737 50.6942 83.6792 51.3249C83.5214 51.522 83.4031 51.7585 83.3242 51.995C83.3242 52.0344 83.2847 52.0344 83.2453 52.0344C83.1269 51.7191 83.2847 51.3643 83.3636 51.0489C83.6397 50.3 84.2709 49.5904 84.9415 49.0779C85.0204 49.0385 85.2965 48.9991 85.3754 49.1962ZM87.6239 46.6733C88.0578 46.9493 88.2156 47.5406 88.7284 47.6588C89.5963 47.8559 90.4641 48.053 91.2531 48.4472C91.8053 48.7232 92.3181 49.1174 92.8309 49.551C93.3043 49.7875 93.896 49.7875 94.4088 49.9452C95.1583 50.1423 95.75 50.6942 96.4206 51.1278C97.2885 51.7979 98.5113 51.7191 99.4975 52.1527C101.075 52.6652 102.338 53.8872 103.797 54.5967C104.547 54.9909 105.691 55.1486 106.44 54.715C106.953 54.3602 107.269 53.8872 107.15 53.217C106.874 51.6008 105.099 50.773 104.271 49.4327C104.113 49.1174 103.994 48.6837 104.073 48.329C104.389 47.5406 105.217 47.1069 105.927 46.831C106.48 46.5551 107.19 46.6339 107.703 46.3185C107.9 46.2003 108.058 46.0426 108.176 45.9243C108.294 45.9243 108.294 46.0426 108.334 46.1214C108.491 47.0675 108.334 48.053 107.505 48.6049C107.19 48.8414 106.795 48.9203 106.44 48.9991C106.125 49.1174 105.493 48.8808 105.533 49.4327C105.612 49.7087 105.849 49.8663 106.046 50.0634C107.15 50.9701 108.176 52.1527 108.294 53.5718C108.334 54.6756 107.584 55.6217 106.637 56.0947C105.927 56.3706 105.06 56.4889 104.31 56.2918C104.113 56.2524 103.797 56.0553 103.639 56.3312C103.6 56.6466 103.797 56.8831 103.797 57.159C103.876 57.6715 103.876 58.3416 103.718 58.8541C103.639 59.2483 103.245 59.7213 103.6 60.1155C103.955 60.6674 104.665 60.5097 105.257 60.5886C105.572 60.628 105.691 60.9828 105.77 61.2193C105.888 61.5347 105.888 61.8894 106.006 62.126C106.006 62.7173 106.677 62.9538 106.992 63.348C107.387 63.7816 107.742 64.5306 108.413 64.4912C108.649 64.9642 108.768 65.3978 108.847 65.9497L108.768 66.0285C108.215 66.0285 107.466 66.1862 107.071 65.792C106.598 65.4767 106.44 64.6094 105.73 64.8459C105.415 65.0825 104.981 65.1613 104.626 65.0036C104.271 64.8854 104.034 64.57 103.718 64.3729C102.772 63.6633 101.509 63.3086 100.286 63.5845C99.5764 63.7816 99.0242 63.2692 98.4719 62.9538C97.7224 62.6384 97.5252 61.85 97.3674 61.1799L97.249 60.3521C97.249 60.2732 97.3279 60.1944 97.4068 60.155H97.5252C97.9591 61.1405 98.7875 62.2442 99.8525 62.599C100.839 62.9932 101.746 62.4807 102.811 62.6778C103.797 62.7961 104.586 63.4268 105.336 64.0181C105.415 64.0181 105.454 63.9787 105.493 63.8999V63.821C104.586 62.6779 103.324 62.0865 101.864 62.2048C100.641 62.4413 99.4581 62.0471 98.748 61.0222C98.3536 60.4309 98.0774 59.8002 97.9591 59.13C97.8407 58.3416 97.6829 57.4744 97.4068 56.7648C97.3279 56.7254 97.249 56.6466 97.1701 56.686L97.0912 56.8043C97.2096 57.5532 97.4463 58.4599 97.1701 59.2483C96.9729 59.879 96.3417 60.1155 95.75 60.155C95.1583 60.1944 94.6061 60.0761 93.9749 60.0761C92.5548 60.0367 91.2925 60.5886 89.833 60.4703C89.9513 60.1155 90.188 59.7608 90.0696 59.3666C90.0302 59.2877 89.9118 59.2877 89.833 59.2877C89.5568 59.4454 89.5963 59.8002 89.4385 60.0367C89.1229 60.5492 88.5312 61.0222 87.9395 61.1405C87.5056 61.4558 87.1111 61.8894 86.7561 62.2836C86.6377 62.4019 86.6377 62.6384 86.6772 62.7961C86.9533 63.5057 87.7817 63.5845 88.4129 63.7816C88.7284 63.821 89.0046 63.7028 89.1623 63.4268C89.4385 62.9932 89.4779 62.2836 90.1091 62.2048H91.4897C91.6081 62.2442 91.687 62.3231 91.7659 62.4413L91.7264 62.6384C91.4108 62.9932 91.2925 63.5057 90.898 63.7422C90.6613 63.821 90.3852 63.7422 90.2274 63.9393C90.1485 64.4123 90.0302 64.9248 89.5568 65.1613C89.2018 65.4767 88.689 65.319 88.2945 65.2007C87.545 64.9248 86.7955 64.7671 86.046 64.5306C85.7304 64.4518 85.6121 64.0575 85.2571 63.9787C84.9415 63.8999 84.5865 64.1364 84.3103 63.8604C84.1526 63.5057 84.0737 63.2691 83.9948 62.8749C83.8764 62.6384 83.7975 62.3625 83.7581 62.0865C83.7186 61.85 83.7581 61.6923 83.837 61.4952L84.8626 59.6425C84.9415 59.5242 85.0204 59.406 85.1387 59.3666C85.3754 59.406 85.6515 59.5242 85.8882 59.6425L85.8488 59.7608L84.7837 61.377C84.547 61.8895 84.7837 62.4807 85.0204 62.9144C85.0598 62.9538 85.0993 63.0326 85.1387 62.9932C85.0993 62.6778 85.0598 62.3625 85.1387 62.0077C85.2176 61.6923 85.4149 61.4164 85.5727 61.1405L86.401 59.9184C86.4799 59.7213 86.4799 59.406 86.3222 59.2089C85.9671 58.8541 85.4543 58.7358 85.1387 58.2628C84.4681 57.3561 84.3892 56.2918 84.3103 55.1486C84.3103 55.0698 84.2314 54.9515 84.1131 54.9121C84.0342 54.8727 83.9553 54.9909 83.9159 55.0304C83.7186 55.7793 83.837 56.686 84.0342 57.3561C84.1526 57.8686 84.3892 58.3811 84.6259 58.8541C84.6654 58.9329 84.5865 59.0512 84.5076 59.0906C83.9553 59.13 83.4031 59.0906 82.8902 59.0118C82.1802 58.8935 81.6674 58.3416 81.0757 57.908C80.9968 57.8686 80.9573 57.9474 80.9179 57.9869C81.0757 58.7753 81.9435 59.2483 82.2196 59.9579C82.3774 60.5492 82.9691 60.9828 83.0875 61.6135C83.0875 61.6923 83.0086 61.8106 82.9297 61.85C82.7325 61.8894 82.5352 61.7712 82.338 61.8894C82.2985 62.2442 82.5352 62.599 82.3774 62.9144C82.1802 63.2297 81.9041 63.5845 81.549 63.5845C80.839 63.348 80.1289 63.0326 79.4189 62.8355C78.9061 62.7961 78.3933 62.8749 77.9199 62.9144C77.4465 62.8355 77.131 62.4019 76.7759 62.1654C76.6576 62.126 76.5392 62.126 76.4604 62.2048C75.6714 62.9932 74.8036 63.8605 73.6202 63.821C73.5413 63.821 73.5018 63.7422 73.5018 63.6633V63.5845C74.0146 63.1115 74.6458 62.6384 74.8825 61.9683C75.0403 61.4164 75.5136 61.0222 75.7109 60.5097C75.7503 60.4309 75.6714 60.3915 75.5925 60.3521L75.4742 60.4309C74.8825 61.0222 74.4485 61.6923 74.0146 62.3231C73.5807 62.7567 72.9495 63.0326 72.2789 62.8749C72.2001 62.8355 72.2001 62.7173 72.2395 62.6384C74.6852 61.1405 74.9614 58.4599 75.632 56.0159C76.1053 54.3996 76.4604 52.744 77.7227 51.4431C79.6161 49.3539 81.983 48.1319 84.0737 46.3185C84.3892 46.0426 84.7048 45.7667 85.0993 45.7667C86.1249 45.6878 86.9139 46.082 87.6239 46.6733ZM110.148 64.097C110.346 64.3729 110.267 64.8065 110.346 65.1219C110.385 65.3584 110.701 65.5555 110.543 65.792L109.675 66.068C109.517 66.068 109.596 65.8709 109.517 65.792C109.438 65.2796 109.32 64.9248 109.162 64.4517C109.123 64.1758 109.399 63.9787 109.596 63.821C109.793 63.7422 109.951 63.9787 110.148 64.097ZM108.136 62.3231C108.452 62.599 108.886 62.7961 109.123 63.1509C109.162 63.3086 109.044 63.4662 108.965 63.5845C108.847 63.7028 108.689 63.7816 108.491 63.7816C108.294 63.7816 108.136 63.6634 108.018 63.5057C107.821 63.1903 107.545 62.9144 107.466 62.599C107.584 62.4019 107.86 62.0865 108.136 62.3231ZM89.1229 62.0077C89.0835 62.4019 88.9651 62.7567 88.8073 63.1115C88.689 63.348 88.334 63.2692 88.0973 63.2297C87.8606 63.1509 87.4661 63.1115 87.4267 62.7567C87.3872 62.4413 87.545 62.126 87.7028 61.8894C88.0578 61.85 88.4917 61.9289 88.8468 61.85C89.0046 61.85 89.1229 61.8894 89.1229 62.0077Z" fill="#E21B4D"/>
<path d="M7.90039 86.5664H13.3836V85.4232H9.1627V81.56H13.2258V80.4168H9.1627V77.5786H13.3836V76.4354H7.90039V86.5664ZM18.7484 86.5664H20.0107V78.9977L27.6634 87V76.4354H26.4011V83.9252L18.7484 75.923V86.5664ZM33.1072 86.5664H38.5509V85.4232H34.3695V81.56H38.4325V80.4168H34.3695V77.5786H38.5509V76.4354H33.1072V86.5664ZM46.8348 82.1513C48.2943 81.9937 49.2805 80.7716 49.2805 79.3131C49.2805 78.3276 48.8072 77.3815 47.9393 76.869C47.1504 76.396 46.1642 76.396 45.2569 76.396H43.7185V86.5664H44.9808V82.2696H45.4936L48.4916 86.5664H50.03L46.8348 82.1513ZM44.9808 77.5392H45.3358C46.5981 77.5392 48.0971 77.7757 48.0971 79.3525C48.0971 80.9687 46.677 81.2052 45.4147 81.2052H45.0202V77.5392H44.9808ZM59.1423 81.4418V82.5849H61.7853C61.7458 84.2406 60.0496 85.5809 58.4717 85.5809C56.2627 85.5809 54.527 83.5705 54.527 81.4418C54.527 79.1554 56.3021 77.3027 58.5901 77.3027C59.8524 77.3027 61.0752 77.9728 61.7853 78.9583L62.6926 78.0911C61.7064 76.8296 60.1285 76.1201 58.5506 76.1201C55.6315 76.1201 53.2647 78.5247 53.2647 81.4418C53.2647 84.2406 55.5526 86.7241 58.3928 86.7241C61.233 86.7241 63.2054 84.5954 63.2054 81.7965V81.4023H59.1423V81.4418ZM70.1481 82.1513V86.5664H71.4104V82.1513L74.724 76.4354H73.2644L70.7793 80.7716L68.2546 76.4354H66.7951L70.1481 82.1513ZM83.4418 86.5664H85.4931C88.6883 86.5664 91.2524 84.9107 91.2524 81.4418C91.2524 78.0516 88.6488 76.396 85.5325 76.396H83.4418V86.5664ZM84.7041 77.5786H85.138C87.7416 77.5786 89.9506 78.5247 89.9506 81.5206C89.9506 84.4771 87.7021 85.4232 85.138 85.4232H84.7041V77.5786ZM99.1813 82.1513C100.641 81.9937 101.627 80.7716 101.627 79.3131C101.627 78.3276 101.154 77.3815 100.286 76.869C99.4968 76.396 98.5106 76.396 97.6034 76.396H96.0649V86.5664H97.3272V82.2696H97.84L100.838 86.5664H102.376L99.1813 82.1513ZM97.3272 77.5392H97.6823C98.9446 77.5392 100.444 77.7757 100.444 79.3525C100.444 80.9687 99.0235 81.2052 97.7612 81.2052H97.3667V77.5392H97.3272ZM106.361 76.4354H107.623V86.6058H106.361V76.4354ZM112.712 86.5664H113.974V78.9977L121.587 87V76.4354H120.325V83.9252L112.712 75.923V86.5664ZM127.978 80.811V76.4354H126.715V86.5664H127.978V82.3484L128.491 81.836L132.317 86.5664H134.013L129.358 80.9687L133.934 76.4354H132.277L127.978 80.811ZM147.031 0.43362C147.741 0.43362 148.332 0.67014 148.806 1.1826C149.279 1.65564 149.555 2.28636 149.555 2.9565C149.555 3.66606 149.319 4.25736 148.806 4.7304C148.332 5.24286 147.701 5.47938 147.031 5.47938C146.321 5.47938 145.729 5.24286 145.216 4.7304C144.743 4.25736 144.467 3.62664 144.467 2.9565C144.467 2.24694 144.703 1.65564 145.216 1.1826C145.729 0.70956 146.321 0.43362 147.031 0.43362ZM149.989 2.9565C149.989 2.1681 149.713 1.45854 149.121 0.86724C148.53 0.31536 147.859 0 147.031 0C146.202 0 145.532 0.27594 144.94 0.86724C144.348 1.45854 144.072 2.12868 144.072 2.9565C144.072 3.78432 144.348 4.45446 144.94 5.04576C145.532 5.63706 146.202 5.913 147.031 5.913C147.859 5.913 148.53 5.63706 149.121 5.04576C149.674 4.49388 149.989 3.78432 149.989 2.9565ZM147.82 2.32578C147.82 2.5623 147.701 2.7594 147.465 2.83824C147.346 2.87766 147.149 2.91708 146.912 2.91708H146.4V1.73448H146.873C147.189 1.73448 147.425 1.7739 147.583 1.85274C147.741 1.971 147.82 2.08926 147.82 2.32578ZM145.847 1.34028V4.57272H146.4V3.31128H146.833C147.149 3.31128 147.346 3.3507 147.465 3.42954C147.662 3.5478 147.78 3.78432 147.78 4.17852V4.57272H148.332L148.293 4.5333C148.293 4.49388 148.254 4.45446 148.254 4.37562V3.90258C148.254 3.7449 148.175 3.58722 148.096 3.39012C147.977 3.23244 147.78 3.11418 147.544 3.07476C147.741 3.03534 147.899 2.99592 148.017 2.91708C148.214 2.79882 148.332 2.5623 148.332 2.28636C148.332 1.89216 148.175 1.61622 147.82 1.45854C147.622 1.3797 147.346 1.34028 146.912 1.34028H145.847Z" fill="#E21B4D"/>
</g>
<defs>
<clipPath id="clip0_304_326">
<rect width="150" height="87" fill="white"/>
</clipPath>
</defs>
</svg>
