<svg width="205" height="63" viewBox="0 0 205 63" fill="none" xmlns="http://www.w3.org/2000/svg">
<g clip-path="url(#clip0_304_334)">
<path d="M203.014 11.3936C136.87 -3.79828 68.1248 -3.79828 1.98038 11.3936L-0.00585938 11.8466V63L3.10737 62.2801C68.4941 47.2649 136.451 47.2649 201.837 62.2801L204.951 63V11.8466L203.014 11.3936Z" fill="#EE303C"/>
<path d="M40.4403 44.3768C42.2501 35.1717 44.06 25.977 45.8698 16.7926L45.9134 16.5878H46.1189C47.7004 16.3809 49.2819 16.1741 50.8634 15.9672L51.1374 15.9362L53.9331 32.1206L56.7599 15.3032H56.9778C58.5635 15.1336 60.1491 14.9722 61.7348 14.8192H61.9963L67.6001 41.7456H67.2701C65.6845 41.878 64.0988 42.0186 62.5131 42.1676H62.2391L59.4186 25.7784L56.5917 42.7447H56.3738C54.7923 42.9143 53.2108 43.0943 51.6293 43.2846L51.3553 43.3156L48.5347 26.9947L45.7203 44.0231H45.5024C43.9209 44.234 42.3415 44.4533 40.7641 44.6809L40.3594 44.7367L40.4403 44.3768Z" fill="#221F20"/>
<path d="M72.9551 13.8448H73.2228C74.7919 13.7331 76.361 13.6318 77.93 13.5408H78.2414V40.9574H77.9674C76.4025 41.0526 74.8376 41.1539 73.2726 41.2615H72.9613L72.9551 13.8448Z" fill="#221F20"/>
<path d="M125.538 40.6471C123.737 40.5603 121.937 40.4858 120.14 40.4238H119.934L119.866 40.2376C117.903 34.8262 115.941 29.4314 113.982 24.0532V40.2686H113.708C112.23 40.2397 110.752 40.2169 109.275 40.2004H108.988V12.7589H109.281C111.049 12.7589 112.813 12.7878 114.573 12.8457H114.773L114.841 13.0319C116.842 18.4432 118.843 23.867 120.843 29.3032V13.0319H121.149C122.626 13.0857 124.104 13.1478 125.582 13.2181H125.862V40.6347L125.538 40.6471Z" fill="#221F20"/>
<path d="M160.194 43.6445C158.642 43.4501 157.087 43.2618 155.531 43.0798H155.275V15.6321L155.599 15.6693C159.74 16.1471 163.93 16.687 168.052 17.2828L168.301 17.32V22.0301L167.965 21.9805C165.474 21.6268 162.984 21.2855 160.493 20.9752V27.4042C162.39 27.6442 164.287 27.8966 166.184 28.1613L166.439 28.1986V32.9211L166.109 32.8776C164.241 32.617 162.374 32.3688 160.506 32.133V43.6879L160.194 43.6445Z" fill="#221F20"/>
<path d="M179.03 46.4308C177.486 46.1661 175.94 45.9116 174.392 45.6676L174.143 45.6303V18.2012L174.479 18.2571C178.582 18.8776 182.748 19.6285 186.869 20.4042L187.106 20.4477V25.164L186.757 25.1019C184.385 24.6551 181.895 24.2083 179.367 23.7801V30.2092C181.259 30.5319 183.15 30.8649 185.039 31.2083L185.275 31.2518V35.9743L184.933 35.9122C183.082 35.573 181.226 35.2462 179.367 34.9317V46.4929L179.03 46.4308Z" fill="#221F20"/>
<path d="M34.3087 30.3209C33.7762 29.9062 33.1165 29.687 32.4408 29.7004C32.3038 29.7004 32.1606 29.7004 32.0174 29.7376L26.1334 30.7243H25.9404C25.6353 30.7243 25.4858 30.6126 25.4858 30.0293V24.9964C25.5021 24.8475 25.5649 24.7074 25.6655 24.596C25.7661 24.4846 25.8993 24.4076 26.0462 24.3759L29.7447 23.7553H29.8319C29.8882 23.7519 29.9447 23.76 29.9978 23.779C30.0509 23.798 30.0996 23.8275 30.1409 23.8658C30.1822 23.9041 30.2153 23.9503 30.2382 24.0018C30.2611 24.0532 30.2733 24.1087 30.274 24.1649V26.5355C31.9759 26.2459 33.6819 25.9687 35.3921 25.7039V21.937C35.4121 21.4655 35.3308 20.9951 35.1537 20.5573C34.9765 20.1196 34.7075 19.7247 34.3648 19.3989C33.7906 18.9037 33.0503 18.6423 32.2914 18.6667C32.0996 18.6712 31.9082 18.6878 31.7185 18.7163C29.1283 19.1445 26.5381 19.5975 23.9977 20.0629C22.9932 20.2491 22.0862 20.7812 21.4352 21.5661C20.7842 22.351 20.4306 23.3389 20.4362 24.3573V33.1135C20.4277 33.5234 20.5022 33.9309 20.6552 34.3115C20.8082 34.6921 21.0365 35.0381 21.3266 35.3289C21.8312 35.8018 22.502 36.0581 23.1945 36.0426C23.4033 36.0419 23.6116 36.0232 23.8172 35.9867L29.4957 34.9752H29.6887C29.8319 34.9752 30.2678 34.9752 30.2678 35.6516V40.7278C30.2678 41.516 30.0747 41.6463 29.6451 41.7518C29.5891 41.7518 25.9964 42.3723 25.9092 42.3723C25.5979 42.3723 25.4983 42.2544 25.4983 41.5842V39.5674L20.4549 40.5044V44.2278C20.4346 44.7076 20.5143 45.1864 20.689 45.6339C20.8637 46.0814 21.1295 46.488 21.4698 46.828C21.9684 47.2913 22.6249 47.5485 23.3066 47.5479C23.4779 47.5467 23.6488 47.5301 23.8172 47.4982C27.1919 46.8777 28.9104 46.5736 32.2229 46.0399C33.1135 45.8649 33.9075 45.3675 34.4519 44.6436C35.0831 43.8278 35.4227 42.8253 35.4171 41.7952V32.9149C35.4513 32.4289 35.3718 31.9417 35.1848 31.4915C34.9979 31.0414 34.7087 30.6407 34.3399 30.3209" fill="#221F20"/>
<path d="M94.8855 24.0532C93.6402 25.2943 90.7324 28.2544 90.7324 28.2544V17.6241L94.8855 17.5186H94.9664C95.7011 17.5186 95.8132 17.7482 95.8132 18.2695V21.8502C95.8387 22.2674 95.7683 22.6849 95.6076 23.0709C95.4468 23.457 95.1999 23.8014 94.8855 24.078M103.042 39.7535C101.253 35.724 99.4619 31.7048 97.6687 27.6959L99.7981 25.6294C100.651 24.7048 101.075 24.2394 101.075 22.328V16.5195C101.075 14.726 99.8293 12.7961 97.1021 12.7961C93.1047 12.8519 89.842 12.9574 85.745 13.1312H85.4648V40.5479H85.7699C87.339 40.4817 88.9081 40.4237 90.4771 40.3741H90.7573V34.1684L93.7834 31.3759C94.9374 34.2719 96.0892 37.1554 97.2391 40.0266L97.3138 40.2127H97.5193C99.271 40.1838 101.023 40.1673 102.774 40.1631H103.223L103.042 39.7535Z" fill="#221F20"/>
<path d="M143.24 36.6135C143.239 36.6748 143.226 36.7353 143.2 36.791C143.174 36.8467 143.137 36.8962 143.09 36.9362C142.996 37.0212 142.875 37.0696 142.748 37.0727H142.686C141.571 36.9734 139.61 36.8183 138.489 36.7314C138.342 36.7186 138.204 36.6542 138.101 36.5496C137.997 36.445 137.934 36.3071 137.922 36.1605V19.1756C137.929 19.0477 137.985 18.9274 138.079 18.8405C138.174 18.7535 138.298 18.7067 138.427 18.7101H138.477L142.667 19.0514C142.816 19.063 142.956 19.1277 143.061 19.2337C143.166 19.3397 143.23 19.4798 143.24 19.6286V36.6135ZM144.927 14.5709C142.082 14.3103 139.174 14.0745 136.266 13.8697H136.185C135.713 13.8467 135.241 13.9236 134.801 14.0955C134.36 14.2673 133.961 14.5301 133.63 14.8665C133.299 15.203 133.043 15.6056 132.879 16.0477C132.716 16.4898 132.647 16.9615 132.68 17.4317V37.3954C132.661 37.8931 132.741 38.3896 132.916 38.856C133.092 39.3224 133.358 39.7494 133.701 40.1121C134.043 40.4748 134.455 40.766 134.911 40.9686C135.368 41.1713 135.86 41.2814 136.36 41.2926C139.635 41.5222 141.341 41.6649 144.647 41.969H145.077C145.536 41.9844 145.995 41.9059 146.423 41.7384C146.851 41.5708 147.241 41.3177 147.567 40.9947C148.202 40.3116 148.54 39.4058 148.507 38.4752V18.5364C148.542 17.5446 148.19 16.578 147.525 15.8397C146.859 15.1013 145.933 14.6488 144.94 14.5772" fill="#221F20"/>
<path d="M38.9899 43.1232C40.7997 33.9057 42.6116 24.7007 44.4256 15.508L44.4692 15.3032H44.6746C46.2562 15.0963 47.8398 14.8895 49.4254 14.6826L49.6994 14.6516L52.5262 30.8422L55.353 14.0062H55.5709C57.1566 13.8366 58.7444 13.6752 60.3342 13.5222H60.5957L66.1995 40.4796H65.8695C64.2797 40.612 62.6919 40.7527 61.1063 40.9016H60.8323L58.0055 24.4938L55.1787 41.4725H54.9607C53.3751 41.6421 51.7915 41.8221 50.21 42.0124L49.936 42.0434L47.0843 25.7349L44.2699 42.7819H44.052C42.4705 42.9929 40.889 43.2122 39.3074 43.4397L38.8965 43.4956L38.9899 43.1232Z" fill="white"/>
<path d="M71.543 12.5603H71.8107C73.3798 12.4486 74.9488 12.3472 76.5179 12.2562H76.8292V39.7039H76.5553C74.9903 39.7991 73.4234 39.9005 71.8543 40.008H71.543V12.5603Z" fill="white"/>
<path d="M124.175 39.3936C122.374 39.3067 120.572 39.2323 118.771 39.1702H118.571L118.503 38.984C116.552 33.581 114.589 28.1758 112.613 22.7686V39.0027H112.314C110.832 38.9696 109.352 38.9468 107.874 38.9344H107.588V11.4681H107.881C109.649 11.4681 111.415 11.497 113.179 11.5549H113.378L113.447 11.7411C115.448 17.1566 117.451 22.5866 119.456 28.031V11.7473H119.761C121.243 11.8011 122.722 11.8632 124.2 11.9335H124.48V39.3812L124.175 39.3936Z" fill="white"/>
<path d="M158.874 42.3972C157.322 42.2027 155.765 42.0145 154.204 41.8325H153.949V14.3475L154.273 14.3848C158.414 14.8626 162.61 15.4087 166.726 15.9982L166.975 16.0355V20.7518L166.639 20.7022C164.148 20.3484 161.658 20.0071 159.167 19.6968V26.1383C161.068 26.3783 162.967 26.6306 164.864 26.8954L165.119 26.9327V31.6614L164.783 31.6179C162.911 31.3573 161.043 31.1091 159.179 30.8732V42.4468L158.874 42.3972Z" fill="white"/>
<path d="M177.734 45.1525C176.186 44.8877 174.637 44.6333 173.089 44.3892L172.84 44.3519V16.9229L173.176 16.9787C177.279 17.5993 181.457 18.3501 185.579 19.1259L185.816 19.1693V23.8918L185.467 23.8236C183.089 23.3767 180.604 22.9299 178.064 22.4955V28.9308C179.957 29.2535 181.85 29.5886 183.742 29.9362L183.979 29.9796V34.7083L183.63 34.6463C181.775 34.307 179.917 33.9781 178.058 33.6595V45.2331L177.734 45.1525Z" fill="white"/>
<path d="M32.8444 29.055C32.3116 28.6406 31.6521 28.4215 30.9764 28.4344C30.8394 28.4344 30.69 28.4344 30.5468 28.4716L24.669 29.4583H24.476C24.1709 29.4583 24.0214 29.3466 24.0214 28.7633V23.7429C24.0377 23.5939 24.1005 23.4538 24.2011 23.3424C24.3017 23.231 24.4349 23.154 24.5818 23.1223L28.2866 22.5018H28.3738C28.4301 22.4984 28.4865 22.5065 28.5396 22.5255C28.5927 22.5445 28.6414 22.574 28.6827 22.6123C28.724 22.6506 28.7572 22.6968 28.78 22.7482C28.8029 22.7996 28.8151 22.8551 28.8158 22.9113V25.3067C30.5219 25.0171 32.23 24.7399 33.9402 24.4752V20.7021C33.9598 20.2306 33.8783 19.7603 33.7011 19.3227C33.524 18.885 33.2552 18.49 32.9128 18.164C32.3383 17.6693 31.5983 17.4079 30.8394 17.4317C30.6476 17.4364 30.4563 17.453 30.2666 17.4814C27.6764 17.9096 25.08 18.3626 22.5333 18.828C21.5266 19.0131 20.6173 19.5455 19.965 20.3318C19.3126 21.1181 18.9588 22.1083 18.9656 23.1286V31.8972C18.9566 32.3081 19.0309 32.7166 19.1839 33.0983C19.3368 33.48 19.5654 33.8271 19.8559 34.1188C20.3596 34.5939 21.0305 34.8525 21.7239 34.8387C21.9327 34.8381 22.141 34.8194 22.3465 34.7828L28.0313 33.7713H28.2243C28.3675 33.7713 28.8034 33.7713 28.8034 34.4477V39.5301C28.8034 40.3183 28.6104 40.4486 28.1807 40.5603C28.1247 40.5603 24.5258 41.1808 24.4449 41.1808C24.1335 41.1808 24.0339 41.063 24.0339 40.3927V38.3262L18.9842 39.2633V42.9867C18.9644 43.4664 19.0443 43.9451 19.2189 44.3926C19.3936 44.84 19.6592 45.2467 19.9992 45.5869C20.4978 46.0501 21.1543 46.3074 21.836 46.3067C22.0073 46.3056 22.1782 46.289 22.3465 46.2571C25.7213 45.6365 27.446 45.3324 30.7585 44.7925C31.6511 44.6184 32.4474 44.121 32.9938 43.3963C33.6245 42.5802 33.9641 41.5779 33.9589 40.5479V31.6551C33.9936 31.1682 33.9144 30.6799 33.7274 30.2287C33.5405 29.7774 33.251 29.3757 32.8817 29.055" fill="white"/>
<path d="M93.4956 22.8121C92.2503 24.0532 89.3363 27.0195 89.3363 27.0195V16.3395L93.4956 16.234H93.5765C94.3113 16.234 94.4296 16.4699 94.4296 16.9849V20.5718C94.4543 20.9895 94.383 21.4073 94.2211 21.7934C94.0593 22.1795 93.8111 22.5236 93.4956 22.7997M101.658 38.4938C99.8652 34.4601 98.072 30.4368 96.2788 26.4238L98.4145 24.3573C99.2675 23.4326 99.6909 22.9672 99.6909 21.0497V15.2349C99.6909 13.4353 98.4456 11.5115 95.7122 11.5115C91.7086 11.5674 88.4459 11.6729 84.3427 11.8466H84.0625V39.3005H84.3676C85.9408 39.2344 87.512 39.1764 89.081 39.1268H89.3674V32.9211L92.3935 30.1596C93.5475 33.0556 94.7014 35.9516 95.8554 38.8475L95.9301 39.0337H96.1294C97.8852 39.0047 99.639 38.9882 101.391 38.984H101.839L101.658 38.4938Z" fill="white"/>
<path d="M141.902 35.3538C141.902 35.4151 141.888 35.4756 141.862 35.5313C141.836 35.587 141.799 35.6364 141.752 35.6764C141.659 35.7637 141.538 35.8144 141.41 35.8192H141.348C140.233 35.7199 138.266 35.5647 137.145 35.4778C136.998 35.465 136.86 35.4006 136.756 35.296C136.653 35.1915 136.589 35.0536 136.578 34.9069V17.8972C136.585 17.7693 136.641 17.6491 136.735 17.5621C136.829 17.4751 136.954 17.4284 137.082 17.4318H137.132L141.329 17.7793C141.478 17.7909 141.618 17.8556 141.723 17.9615C141.828 18.0675 141.892 18.2077 141.902 18.3564V35.3538ZM143.595 13.2926C140.744 13.0319 137.836 12.7961 134.928 12.5851H134.847C134.375 12.5622 133.902 12.6392 133.462 12.8109C133.021 12.9827 132.622 13.2454 132.29 13.5817C131.959 13.9181 131.702 14.3206 131.538 14.7627C131.373 15.2048 131.304 15.6767 131.335 16.1472V36.1356C131.316 36.6336 131.397 37.1305 131.572 37.5972C131.747 38.064 132.014 38.4914 132.356 38.8546C132.698 39.2178 133.11 39.5095 133.566 39.7128C134.023 39.9162 134.515 40.0271 135.015 40.039C138.29 40.2686 139.996 40.4114 143.309 40.7154H143.739C144.198 40.7305 144.656 40.6518 145.085 40.4843C145.513 40.3168 145.902 40.0639 146.229 39.7412C146.865 39.0562 147.203 38.1481 147.169 37.2155V17.227C147.204 16.2336 146.851 15.2654 146.185 14.5259C145.518 13.7864 144.59 13.3332 143.595 13.2615" fill="white"/>
</g>
<defs>
<clipPath id="clip0_304_334">
<rect width="205" height="63" fill="white"/>
</clipPath>
</defs>
</svg>
