<svg width="48" height="50" viewBox="0 0 48 50" fill="none" xmlns="http://www.w3.org/2000/svg">
<path d="M35.55 19.6567C35.55 20.2279 35.4375 20.7936 35.2189 21.3213C35.0003 21.8491 34.6798 22.3287 34.2759 22.7326C33.872 23.1365 33.3924 23.4569 32.8647 23.6755C32.3369 23.8942 31.7713 24.0067 31.2 24.0067H19.2V33.0067C19.2 33.8421 18.8681 34.6433 18.2774 35.2341C17.6867 35.8248 16.8854 36.1567 16.05 36.1567C15.2146 36.1567 14.4134 35.8248 13.8226 35.2341C13.2319 34.6433 12.9 33.8421 12.9 33.0067V24.0067H10.2C9.0861 24.0067 8.0178 23.5642 7.23015 22.7765C6.4425 21.9889 6 20.9206 6 19.8067C6 18.6928 6.4425 17.6245 7.23015 16.8368C8.0178 16.0492 9.0861 15.6067 10.2 15.6067C10.4922 12.9782 11.7388 10.5483 13.7033 8.77763C15.6678 7.00701 18.2137 6.01876 20.8583 6.00026C23.503 5.98177 26.0625 6.93431 28.0516 8.67729C30.0406 10.4203 31.321 12.8325 31.65 15.4567C32.7111 15.5327 33.7039 16.0085 34.4278 16.788C35.1516 17.5676 35.5527 18.5928 35.55 19.6567Z" stroke="white" stroke-width="1.5" stroke-linecap="round" stroke-linejoin="round"/>
<path d="M25.8008 30.4567V42.9067" stroke="white" stroke-width="1.5" stroke-linecap="round" stroke-linejoin="round"/>
<path d="M16.0508 40.9567V43.8067" stroke="white" stroke-width="1.5" stroke-linecap="round" stroke-linejoin="round"/>
<path d="M7.34961 22.9567V45.3067C7.34961 46.1023 7.66568 46.8654 8.22829 47.428C8.7909 47.9906 9.55396 48.3067 10.3496 48.3067H31.0496C31.8453 48.3067 32.6083 47.9906 33.1709 47.428C33.7335 46.8654 34.0496 46.1023 34.0496 45.3067V22.9567" stroke="white" stroke-width="1.5" stroke-linecap="round" stroke-linejoin="round"/>
<path d="M34.0508 26.7067H38.7008C39.2577 26.7067 39.7919 26.9279 40.1857 27.3218C40.5795 27.7156 40.8008 28.2497 40.8008 28.8067V38.2567C40.8008 38.8136 40.5795 39.3478 40.1857 39.7416C39.7919 40.1354 39.2577 40.3567 38.7008 40.3567H34.0508V26.8567V26.7067Z" stroke="white" stroke-width="1.5" stroke-linecap="round" stroke-linejoin="round"/>
</svg>
