<svg width="78" height="48" viewBox="0 0 78 48" fill="none" xmlns="http://www.w3.org/2000/svg">
<path d="M27.6001 3V15H27.7501C29.8185 15.2229 31.7306 16.2053 33.1161 17.7571C34.5017 19.3089 35.2621 21.3197 35.2501 23.4V45.6H12.0001V23.25C11.988 21.2093 12.7326 19.2366 14.0901 17.7128C15.4476 16.1891 17.3216 15.2226 19.3501 15V3H27.6001Z" stroke="white" stroke-width="1.5" stroke-linecap="round" stroke-linejoin="round"/>
<path d="M19.3506 8.55005H27.6006" stroke="white" stroke-width="1.5" stroke-linecap="round" stroke-linejoin="round"/>
<path d="M12 27.6H35.25" stroke="white" stroke-width="1.5" stroke-linecap="round" stroke-linejoin="round"/>
<path d="M12 35.55H35.25" stroke="white" stroke-width="1.5" stroke-linecap="round" stroke-linejoin="round"/>
<path d="M40.5 4.5H67.05V17.7C67.05 21.2009 65.6593 24.5583 63.1838 27.0338C60.7083 29.5093 57.3508 30.9 53.85 30.9C50.3491 30.9 46.9917 29.5093 44.5162 27.0338C42.0407 24.5583 40.65 21.2009 40.65 17.7V4.5H40.5Z" stroke="white" stroke-width="1.5" stroke-linecap="round" stroke-linejoin="round"/>
<path d="M40.5 16.8H66.9" stroke="white" stroke-width="1.5" stroke-linecap="round" stroke-linejoin="round"/>
<path d="M53.6992 31.05V45" stroke="white" stroke-width="1.5" stroke-linecap="round" stroke-linejoin="round"/>
<path d="M43.3496 45H64.0496" stroke="white" stroke-width="1.5" stroke-linecap="round" stroke-linejoin="round"/>
</svg>
