<svg width="48" height="48" viewBox="0 0 48 48" fill="none" xmlns="http://www.w3.org/2000/svg">
<path d="M19.5 29.5499L34.5 12.1499H4.5L19.5 29.5499ZM19.5 29.5499L34.5 12.1499H4.5L19.5 29.5499Z" stroke="white" stroke-width="1.5" stroke-linecap="round" stroke-linejoin="round"/>
<path d="M19.5 29.5498V43.0498" stroke="white" stroke-width="1.5" stroke-linecap="round" stroke-linejoin="round"/>
<path d="M9.59961 43.0498H29.3996" stroke="white" stroke-width="1.5" stroke-linecap="round" stroke-linejoin="round"/>
<path d="M13.6504 22.2H25.3504" stroke="white" stroke-width="1.5" stroke-linecap="round" stroke-linejoin="round"/>
<path d="M26.8496 12.15C26.8496 10.637 27.2983 9.15795 28.1389 7.89991C28.9794 6.64187 30.1742 5.66134 31.5721 5.08233C32.9699 4.50332 34.5081 4.35182 35.9921 4.64699C37.476 4.94217 38.8391 5.6708 39.909 6.74067C40.9788 7.81054 41.7074 9.17361 42.0026 10.6576C42.2978 12.1415 42.1463 13.6797 41.5673 15.0776C40.9883 16.4754 40.0078 17.6702 38.7497 18.5108C37.4917 19.3514 36.0126 19.8 34.4996 19.8C32.664 19.791 30.8982 19.0953 29.5496 17.85" stroke="white" stroke-width="1.5" stroke-linecap="round" stroke-linejoin="round"/>
</svg>
