<svg width="32" height="32" viewBox="0 0 32 32" fill="none" xmlns="http://www.w3.org/2000/svg">
<path d="M11.9993 29.3334H19.9993C26.666 29.3334 29.3327 26.6667 29.3327 20.0001V12.0001C29.3327 5.33341 26.666 2.66675 19.9993 2.66675H11.9993C5.33268 2.66675 2.66602 5.33341 2.66602 12.0001V20.0001C2.66602 26.6667 5.33268 29.3334 11.9993 29.3334Z" stroke="#EC6E00" stroke-width="1.5" stroke-linecap="round" stroke-linejoin="round"/>
<path d="M16.0007 20.6666C18.578 20.6666 20.6673 18.5772 20.6673 15.9999C20.6673 13.4226 18.578 11.3333 16.0007 11.3333C13.4233 11.3333 11.334 13.4226 11.334 15.9999C11.334 18.5772 13.4233 20.6666 16.0007 20.6666Z" stroke="#EC6E00" stroke-width="1.5" stroke-linecap="round" stroke-linejoin="round"/>
<path d="M23.5142 9.33341H23.5296" stroke="#EC6E00" stroke-width="2" stroke-linecap="round" stroke-linejoin="round"/>
</svg>
