<svg width="36" height="17" viewBox="0 0 36 17" fill="none" xmlns="http://www.w3.org/2000/svg">
<path d="M17.9995 0.559983C19.8929 0.559983 21.3462 1.15998 22.3595 2.35998C23.3462 3.53332 23.9595 4.85332 24.1995 6.31999L25.0795 4.87998C26.4395 2.77332 28.1462 1.71999 30.1995 1.71999C34.0395 1.71999 35.9595 4.18665 35.9595 9.11998C35.9595 10.1867 35.8529 11.2 35.6395 12.16C35.4529 13.12 35.2529 13.8267 35.0395 14.28L34.7195 14.92C34.2129 14.8667 33.4262 14.84 32.3595 14.84L29.7995 14.92C31.0529 14.0933 31.9995 13.2267 32.6395 12.32C33.3062 11.3867 33.6395 10.3067 33.6395 9.07999C33.6395 6.54665 32.6529 5.27999 30.6795 5.27999C29.8529 5.27999 29.2129 5.47999 28.7595 5.87998C28.2795 6.27999 27.7729 6.90665 27.2395 7.75998L24.7595 11.76C24.3062 12.5067 23.9729 13.0533 23.7595 13.4C23.5195 13.7467 23.1329 14.2 22.5995 14.76C22.0662 15.32 21.4662 15.7333 20.7995 16C20.1329 16.24 19.3595 16.36 18.4795 16.36C16.5862 16.36 15.1462 15.7733 14.1595 14.6C13.1462 13.4 12.5195 12.0533 12.2795 10.56L11.3995 12C10.0662 14.1333 8.35953 15.2 6.27953 15.2C4.3062 15.2 2.85287 14.5467 1.91953 13.24C0.986198 11.9333 0.519531 10.12 0.519531 7.79998C0.519531 6.73332 0.626198 5.71998 0.839532 4.75998C1.0262 3.77332 1.2262 3.06665 1.43953 2.63999L1.75953 1.99999C2.2662 2.05332 3.05287 2.07999 4.11953 2.07999L6.67953 1.99999C4.11953 3.70665 2.83953 5.63998 2.83953 7.79998C2.83953 10.36 3.8262 11.64 5.79953 11.64C6.6262 11.64 7.27953 11.44 7.75953 11.04C8.21287 10.64 8.7062 9.99999 9.23953 9.11998L11.7195 5.15998C12.1462 4.43999 12.4929 3.90665 12.7595 3.55999C12.9995 3.18665 13.3862 2.71999 13.9195 2.15999C14.4262 1.59999 15.0262 1.19999 15.7195 0.959985C16.3862 0.693318 17.1462 0.559983 17.9995 0.559983ZM18.9595 3.91999C17.9995 3.91999 17.2129 4.14665 16.5995 4.59998C15.9595 5.05332 15.2795 5.85332 14.5595 6.99998L12.7995 9.75998C13.0129 10.48 13.5462 11.2 14.3995 11.92C15.2529 12.64 16.2929 13 17.5195 13C18.4795 13 19.2795 12.7733 19.9195 12.32C20.5595 11.84 21.2395 11.04 21.9595 9.91999L23.6795 7.15999C23.4662 6.43999 22.9329 5.71999 22.0795 4.99999C21.2262 4.27999 20.1862 3.91999 18.9595 3.91999Z" fill="#EC6E00"/>
</svg>
